<svg id="Layer_2" data-name="Layer 2" xmlns="http://www.w3.org/2000/svg" viewBox="0 0 500 112"><defs><style>.cls-1{fill:#00a4ac;}.cls-2{fill:#0087c9;}</style></defs><title>Avenir-logo_Color</title><polygon class="cls-1" points="125.94 82.83 134.86 98.28 117.02 98.28 109.1 112 158.63 112 133.86 69.1 125.94 82.83"/><polygon class="cls-2" points="140.36 37.31 132.45 23.61 103.16 74.34 79.31 33.04 47.56 88.04 55.47 101.73 79.31 60.42 103.16 101.73 103.16 101.73 103.16 101.73 140.36 37.31"/><polygon class="cls-1" points="114.09 34.87 93.97 0 64.66 0 0 112 49.53 112 41.61 98.28 23.77 98.28 72.58 13.72 86.04 13.72 106.17 48.59 114.09 34.87"/><path class="cls-1" d="M307.62,30.93h32.83v6.85h-25V52.5h22.31v6.7H315.42v15h25V81H307.62Z"/><path class="cls-1" d="M430.07,30.93h7.73V81h-7.73Z"/><path class="cls-1" d="M463.41,30.93H480.2c10.3,0,18.18,4.86,18.18,15.9,0,7.44-4.05,12.23-10.16,14.36L500,81h-8.91L480.27,62.44h-9.06V81h-7.8Zm16.49,25c6.63,0,10.46-2.72,10.46-9.06s-3.91-9-10.46-9h-8.69V55.89Z"/><polygon class="cls-1" points="397.24 30.93 397.24 64.52 365.51 30.42 364.48 30.42 364.48 81 371.69 81 371.69 47.25 403.5 81.51 404.46 81.51 404.46 30.93 397.24 30.93"/><polygon class="cls-1" points="280.67 30.93 266.59 64.97 252.32 30.93 244 30.93 265.94 81.51 266.9 81.51 288.25 30.93 280.67 30.93"/><path class="cls-1" d="M227.66,81H236L214,30.42h-1L191.73,81h7.58l3.78-9.13h20.74ZM205.77,65.39,213.39,47l7.72,18.43Z"/></svg>