<svg xmlns="http://www.w3.org/2000/svg" xmlns:xlink="http://www.w3.org/1999/xlink" width="1731.947" height="1427.508" viewBox="0 0 1731.947 1427.508"><defs><style>.a,.b{fill:#f2f2f2;}.a{clip-rule:evenodd;}.c{fill:#59afb2;}.d{fill:#dc2249;}.e{fill:#7a4865;}.f{fill:#f6cb51;}.g{fill:none;}.h{fill:#3d2c42;}.i{fill:#ff004e;}.j{fill:#1ca4a9;}.k{fill:#0e24bb;}.l{fill:#132db8;}.m{clip-path:url(#a);}.n{clip-path:url(#b);}.o{clip-path:url(#c);}.p{fill:#28a4a8;}.q{clip-path:url(#d);}.r{clip-path:url(#e);}.s{fill:#188ac0;}.t{clip-path:url(#f);}.u{fill:#2b8cbc;}.v{clip-path:url(#g);}.w{clip-path:url(#h);}.x{clip-path:url(#i);}.y{fill:#a9ddde;}.z{clip-path:url(#j);}.aa{fill:#3d2b41;}.ab{clip-path:url(#k);}.ac{clip-path:url(#l);}.ad{clip-path:url(#m);}.ae{clip-path:url(#n);}.af{clip-path:url(#o);}.ag{clip-path:url(#p);}.ah{clip-path:url(#q);}.ai{clip-path:url(#r);}.aj{clip-path:url(#s);}.ak{clip-path:url(#t);}.al{fill:#05143b;}.am{clip-path:url(#v);}.an{clip-path:url(#w);}.ao{clip-path:url(#x);}.ap{fill:#55afb3;}.aq{clip-path:url(#y);}.ar{clip-path:url(#z);}.as{clip-path:url(#aa);}.at{clip-path:url(#ab);}</style><clipPath id="a"><path class="a" d="M0-1442H1539.873V-287.1H0Z" transform="translate(3772 6270)"/></clipPath><clipPath id="b"><path class="b" d="M134.284-1112.329a91.085,91.085,0,0,1,91.133,91.034v440.016a91.085,91.085,0,0,1-91.133,91.034H43.151v-531.051a91.085,91.085,0,0,1,91.133-91.034Z" transform="translate(-43.151 1112.329)"/></clipPath><clipPath id="c"><path class="c" d="M511.681-923.287a91.088,91.088,0,0,1,91.133,91.042V-25.008a91.088,91.088,0,0,1-91.134,91.042q-50.331,0-91.133,60.695V-832.244A91.088,91.088,0,0,1,511.681-923.287Z" transform="translate(-420.548 923.287)"/></clipPath><clipPath id="d"><path class="b" d="M511.681-1200a91.1,91.1,0,0,1,91.134,91.072V-301.42a91.1,91.1,0,0,1-91.134,91.072q-50.331,0-91.133,91.072v-989.652A91.1,91.1,0,0,1,511.681-1200Z" transform="translate(-420.548 1200)"/></clipPath><clipPath id="e"><path class="d" d="M134.284-430.137A91.085,91.085,0,0,1,225.418-339.1V100.914a91.085,91.085,0,0,1-91.133,91.034H43.151V-339.1A91.085,91.085,0,0,1,134.284-430.137Z" transform="translate(-43.151 430.137)"/></clipPath><clipPath id="f"><path class="e" d="M532.721-165.707H169.178v-855.1H317.625v-5.217h215.1Zm0,2.972v26.746H169.178v-26.746Zm0,31.7v24.269H169.178v-24.269Zm0,32.194v21.3H169.178v-21.3Zm0,32.194v17.83H169.178v-17.83Zm0,30.708v17.335H169.178V-35.941Zm0,33.184V9.626H169.178V-2.757Zm-2.05,31.2a90.711,90.711,0,0,1-3.071,10.9H174.3a90.7,90.7,0,0,1-3.071-10.9Zm-13.521,31.7a91.5,91.5,0,0,1-6.419,8.42H191.169a91.527,91.527,0,0,1-6.423-8.42Zm-38.2,32.194a90.33,90.33,0,0,1-37.118,7.925H260.064a90.33,90.33,0,0,1-37.118-7.925Z" transform="translate(-169.178 1026.027)"/></clipPath><clipPath id="g"><path class="f" d="M169.178-1026.2H532.721v338.3a90.954,90.954,0,0,1-90.886,91.022,90.954,90.954,0,0,0-90.886,91.023v109.885c0,100.544-81.382,182.045-181.772,182.045Z" transform="translate(-169.178 1026.204)"/></clipPath><clipPath id="h"><rect class="g" width="373.449" height="823.173"/></clipPath><clipPath id="i"><path class="g" d="M169.178-213.445H532.721v-813.267H169.178Z" transform="translate(-169.178 1026.712)"/></clipPath><clipPath id="j"><path class="h" d="M854.87-658.917v523.15A91.1,91.1,0,0,1,763.736-44.7Q713.4-44.7,672.6,46.377V-736.567a91.155,91.155,0,0,0,90.143,77.65Z" transform="translate(-672.603 736.567)"/></clipPath><clipPath id="k"><path class="d" d="M763.645-556.849a91,91,0,0,1,91.043,90.96V-26.248a91,91,0,0,1-91.043,90.96A91,91,0,0,1,672.6-26.247V-465.889A91,91,0,0,1,763.645-556.849Z" transform="translate(-672.603 556.849)"/></clipPath><clipPath id="l"><rect class="d" width="192.173" height="631.991"/></clipPath><clipPath id="m"><path class="i" d="M672.6,65.236H854.87V-556.849H672.6Z" transform="translate(-672.603 556.849)"/></clipPath><clipPath id="n"><path class="j" d="M110.37-458.242A15.9,15.9,0,0,1,94.521-474.2a15.9,15.9,0,0,1,15.849-15.96,15.9,15.9,0,0,1,15.849,15.96,15.9,15.9,0,0,1-15.849,15.96Zm0,77.522a15.9,15.9,0,0,1-15.849-15.96,15.9,15.9,0,0,1,15.849-15.96,15.9,15.9,0,0,1,15.849,15.96,15.9,15.9,0,0,1-15.849,15.96Zm0-232.565a15.9,15.9,0,0,1-15.849-15.96,15.9,15.9,0,0,1,15.849-15.961,15.9,15.9,0,0,1,15.849,15.961,15.9,15.9,0,0,1-15.849,15.96Zm0,77.522a15.9,15.9,0,0,1-15.849-15.96,15.9,15.9,0,0,1,15.849-15.96,15.9,15.9,0,0,1,15.849,15.96,15.9,15.9,0,0,1-15.849,15.96Z" transform="translate(-94.52 645.205)"/></clipPath><clipPath id="o"><path class="k" d="M600.49-671.728c95.6,0,173.093-77.473,173.093-173.04s-77.5-173.041-173.093-173.041S427.4-940.336,427.4-844.767,504.893-671.728,600.49-671.728Z" transform="translate(-427.397 1017.808)"/></clipPath><clipPath id="p"><rect class="e" width="542.839" height="1126.291"/></clipPath><clipPath id="q"><path class="g" d="M427.4-671.1H774.1v-346.7H427.4Z" transform="translate(-427.397 1017.808)"/></clipPath><clipPath id="r"><path class="b" d="M911.489-1026.2V7.853a91.1,91.1,0,0,1-91.1,91.1h-182.2a91.1,91.1,0,0,1-91.1-91.1V-1026.205Z" transform="translate(-547.081 1026.205)"/></clipPath><clipPath id="s"><path class="b" d="M427.4-671.1H774.1v-346.7H427.4Z" transform="translate(-427.397 1017.808)"/></clipPath><clipPath id="t"><path class="g" d="M547.081-899.21H720.175v294.472H547.081Z" transform="translate(-547.081 899.21)"/></clipPath><clipPath id="v"><path class="d" d="M1002.054-401.806a4.443,4.443,0,0,1-4.457-4.431,4.443,4.443,0,0,1,4.457-4.431,4.443,4.443,0,0,1,4.458,4.431,4.443,4.443,0,0,1-4.458,4.431Zm0-31.017a4.443,4.443,0,0,1-4.457-4.431,4.443,4.443,0,0,1,4.457-4.431,4.443,4.443,0,0,1,4.458,4.431,4.443,4.443,0,0,1-4.458,4.432Zm0-31.017a4.443,4.443,0,0,1-4.457-4.431,4.443,4.443,0,0,1,4.457-4.431,4.443,4.443,0,0,1,4.458,4.431,4.443,4.443,0,0,1-4.458,4.431Zm0-31.017a4.442,4.442,0,0,1-4.457-4.431,4.443,4.443,0,0,1,4.457-4.431,4.443,4.443,0,0,1,4.458,4.431,4.443,4.443,0,0,1-4.458,4.431Zm0-31.017a4.443,4.443,0,0,1-4.457-4.431,4.443,4.443,0,0,1,4.457-4.431,4.443,4.443,0,0,1,4.458,4.431A4.443,4.443,0,0,1,1002.054-525.874Zm0-31.017a4.443,4.443,0,0,1-4.457-4.431,4.443,4.443,0,0,1,4.457-4.431,4.443,4.443,0,0,1,4.458,4.431A4.443,4.443,0,0,1,1002.054-556.891ZM972.787-401.806a4.443,4.443,0,0,1-4.458-4.431,4.443,4.443,0,0,1,4.458-4.431,4.443,4.443,0,0,1,4.458,4.431,4.443,4.443,0,0,1-4.454,4.431Zm0-31.017a4.443,4.443,0,0,1-4.458-4.431,4.443,4.443,0,0,1,4.458-4.431,4.443,4.443,0,0,1,4.458,4.431,4.443,4.443,0,0,1-4.454,4.432Zm0-31.017a4.443,4.443,0,0,1-4.458-4.431,4.443,4.443,0,0,1,4.458-4.431,4.443,4.443,0,0,1,4.458,4.431,4.443,4.443,0,0,1-4.454,4.431Zm0-31.017a4.443,4.443,0,0,1-4.458-4.431,4.443,4.443,0,0,1,4.458-4.431,4.443,4.443,0,0,1,4.458,4.431,4.443,4.443,0,0,1-4.454,4.431Zm0-31.017a4.443,4.443,0,0,1-4.458-4.431,4.443,4.443,0,0,1,4.458-4.431,4.443,4.443,0,0,1,4.458,4.431,4.443,4.443,0,0,1-4.454,4.431Zm0-31.017a4.443,4.443,0,0,1-4.458-4.431,4.443,4.443,0,0,1,4.458-4.431,4.443,4.443,0,0,1,4.458,4.431,4.443,4.443,0,0,1-4.454,4.431ZM943.522-401.806a4.443,4.443,0,0,1-4.457-4.431,4.443,4.443,0,0,1,4.457-4.431,4.443,4.443,0,0,1,4.458,4.431,4.443,4.443,0,0,1-4.454,4.431Zm0-31.017a4.443,4.443,0,0,1-4.457-4.431,4.443,4.443,0,0,1,4.457-4.431,4.443,4.443,0,0,1,4.458,4.431,4.443,4.443,0,0,1-4.454,4.432Zm0-31.017a4.443,4.443,0,0,1-4.457-4.431,4.443,4.443,0,0,1,4.457-4.431,4.443,4.443,0,0,1,4.458,4.431,4.443,4.443,0,0,1-4.454,4.431Zm0-31.017a4.443,4.443,0,0,1-4.457-4.431,4.443,4.443,0,0,1,4.457-4.431,4.443,4.443,0,0,1,4.458,4.431,4.443,4.443,0,0,1-4.454,4.431Zm0-31.017a4.443,4.443,0,0,1-4.457-4.431,4.443,4.443,0,0,1,4.457-4.431,4.443,4.443,0,0,1,4.458,4.431,4.443,4.443,0,0,1-4.454,4.431Zm0-31.017a4.443,4.443,0,0,1-4.457-4.431,4.443,4.443,0,0,1,4.457-4.431,4.443,4.443,0,0,1,4.458,4.431,4.443,4.443,0,0,1-4.454,4.431ZM912.982-401.806a4.443,4.443,0,0,1-4.458-4.431,4.443,4.443,0,0,1,4.458-4.431,4.443,4.443,0,0,1,4.458,4.431,4.443,4.443,0,0,1-4.454,4.431Zm0-31.017a4.443,4.443,0,0,1-4.458-4.431,4.443,4.443,0,0,1,4.458-4.431,4.443,4.443,0,0,1,4.458,4.431,4.443,4.443,0,0,1-4.454,4.432Zm0-31.017a4.443,4.443,0,0,1-4.458-4.431,4.443,4.443,0,0,1,4.458-4.431,4.443,4.443,0,0,1,4.458,4.431,4.443,4.443,0,0,1-4.454,4.431Zm0-31.017a4.443,4.443,0,0,1-4.458-4.431,4.443,4.443,0,0,1,4.458-4.431,4.443,4.443,0,0,1,4.458,4.431,4.443,4.443,0,0,1-4.454,4.431Zm0-31.017a4.443,4.443,0,0,1-4.458-4.431,4.443,4.443,0,0,1,4.458-4.431,4.443,4.443,0,0,1,4.458,4.431,4.443,4.443,0,0,1-4.454,4.431Zm0-31.017a4.443,4.443,0,0,1-4.458-4.431,4.443,4.443,0,0,1,4.458-4.431,4.443,4.443,0,0,1,4.458,4.431,4.443,4.443,0,0,1-4.454,4.431ZM883.716-401.806a4.443,4.443,0,0,1-4.458-4.431,4.443,4.443,0,0,1,4.458-4.431,4.443,4.443,0,0,1,4.458,4.431,4.443,4.443,0,0,1-4.454,4.431Zm0-31.017a4.443,4.443,0,0,1-4.458-4.431,4.443,4.443,0,0,1,4.458-4.431,4.443,4.443,0,0,1,4.458,4.431,4.443,4.443,0,0,1-4.454,4.432Zm0-31.017a4.443,4.443,0,0,1-4.458-4.431,4.443,4.443,0,0,1,4.458-4.431,4.443,4.443,0,0,1,4.458,4.431,4.443,4.443,0,0,1-4.454,4.431Zm0-31.017a4.443,4.443,0,0,1-4.458-4.431,4.443,4.443,0,0,1,4.458-4.431,4.443,4.443,0,0,1,4.458,4.431,4.443,4.443,0,0,1-4.454,4.431Zm0-31.017a4.443,4.443,0,0,1-4.458-4.431,4.443,4.443,0,0,1,4.458-4.431,4.443,4.443,0,0,1,4.458,4.431,4.443,4.443,0,0,1-4.454,4.431Zm0-31.017a4.443,4.443,0,0,1-4.458-4.431,4.443,4.443,0,0,1,4.458-4.431,4.443,4.443,0,0,1,4.458,4.431,4.443,4.443,0,0,1-4.454,4.431ZM854.457-401.806A4.443,4.443,0,0,1,850-406.237a4.443,4.443,0,0,1,4.458-4.431,4.443,4.443,0,0,1,4.458,4.431,4.443,4.443,0,0,1-4.458,4.431Zm0-31.017A4.443,4.443,0,0,1,850-437.254a4.443,4.443,0,0,1,4.458-4.431,4.443,4.443,0,0,1,4.458,4.431,4.443,4.443,0,0,1-4.458,4.432Zm0-31.017A4.443,4.443,0,0,1,850-468.271a4.443,4.443,0,0,1,4.458-4.431,4.443,4.443,0,0,1,4.458,4.431,4.443,4.443,0,0,1-4.458,4.431Zm0-31.017A4.443,4.443,0,0,1,850-499.288a4.443,4.443,0,0,1,4.458-4.431,4.443,4.443,0,0,1,4.458,4.431,4.443,4.443,0,0,1-4.458,4.431Zm0-31.017A4.443,4.443,0,0,1,850-530.305a4.443,4.443,0,0,1,4.458-4.431,4.443,4.443,0,0,1,4.458,4.431,4.443,4.443,0,0,1-4.458,4.431Zm0-31.017A4.443,4.443,0,0,1,850-561.322a4.443,4.443,0,0,1,4.458-4.431,4.443,4.443,0,0,1,4.458,4.431,4.443,4.443,0,0,1-4.458,4.431Zm147.6,341.8a4.443,4.443,0,0,1-4.457-4.431,4.443,4.443,0,0,1,4.457-4.431,4.443,4.443,0,0,1,4.458,4.431,4.443,4.443,0,0,1-4.458,4.431Zm0-31.017a4.443,4.443,0,0,1-4.457-4.431,4.443,4.443,0,0,1,4.457-4.431,4.443,4.443,0,0,1,4.458,4.431A4.443,4.443,0,0,1,1002.054-246.1Zm0-31.017a4.443,4.443,0,0,1-4.457-4.431,4.443,4.443,0,0,1,4.457-4.431,4.443,4.443,0,0,1,4.458,4.431A4.443,4.443,0,0,1,1002.054-277.122Zm0-31.017a4.443,4.443,0,0,1-4.457-4.431,4.443,4.443,0,0,1,4.457-4.431,4.443,4.443,0,0,1,4.458,4.431,4.443,4.443,0,0,1-4.458,4.431Zm0-31.017a4.443,4.443,0,0,1-4.457-4.431,4.443,4.443,0,0,1,4.457-4.431,4.443,4.443,0,0,1,4.458,4.431,4.443,4.443,0,0,1-4.458,4.431Zm0-31.017A4.443,4.443,0,0,1,997.6-374.6a4.443,4.443,0,0,1,4.457-4.431,4.443,4.443,0,0,1,4.458,4.431A4.443,4.443,0,0,1,1002.054-370.173ZM972.791-215.087a4.443,4.443,0,0,1-4.458-4.431,4.443,4.443,0,0,1,4.458-4.431,4.443,4.443,0,0,1,4.458,4.431,4.443,4.443,0,0,1-4.458,4.431Zm0-31.017a4.443,4.443,0,0,1-4.458-4.431,4.443,4.443,0,0,1,4.458-4.431,4.443,4.443,0,0,1,4.458,4.431,4.443,4.443,0,0,1-4.458,4.431Zm0-31.017a4.443,4.443,0,0,1-4.458-4.431,4.443,4.443,0,0,1,4.458-4.431,4.443,4.443,0,0,1,4.458,4.431,4.443,4.443,0,0,1-4.458,4.431Zm0-31.017a4.443,4.443,0,0,1-4.458-4.431A4.443,4.443,0,0,1,972.791-317a4.443,4.443,0,0,1,4.458,4.431,4.443,4.443,0,0,1-4.458,4.431Zm0-31.017a4.443,4.443,0,0,1-4.458-4.431,4.443,4.443,0,0,1,4.458-4.431,4.443,4.443,0,0,1,4.458,4.431,4.443,4.443,0,0,1-4.458,4.431Zm0-31.017a4.443,4.443,0,0,1-4.458-4.431,4.443,4.443,0,0,1,4.458-4.431,4.443,4.443,0,0,1,4.458,4.431,4.443,4.443,0,0,1-4.458,4.431ZM943.526-215.087a4.443,4.443,0,0,1-4.458-4.431,4.443,4.443,0,0,1,4.458-4.431,4.443,4.443,0,0,1,4.458,4.431,4.443,4.443,0,0,1-4.458,4.431Zm0-31.017a4.443,4.443,0,0,1-4.458-4.431,4.443,4.443,0,0,1,4.458-4.431,4.443,4.443,0,0,1,4.458,4.431,4.443,4.443,0,0,1-4.458,4.431Zm0-31.017a4.443,4.443,0,0,1-4.458-4.431,4.443,4.443,0,0,1,4.458-4.431,4.443,4.443,0,0,1,4.458,4.431,4.443,4.443,0,0,1-4.458,4.431Zm0-31.017a4.443,4.443,0,0,1-4.458-4.431A4.443,4.443,0,0,1,943.526-317a4.443,4.443,0,0,1,4.458,4.431,4.443,4.443,0,0,1-4.458,4.431Zm0-31.017a4.443,4.443,0,0,1-4.458-4.431,4.443,4.443,0,0,1,4.458-4.431,4.443,4.443,0,0,1,4.458,4.431,4.443,4.443,0,0,1-4.458,4.431Zm0-31.017a4.443,4.443,0,0,1-4.458-4.431,4.443,4.443,0,0,1,4.458-4.431,4.443,4.443,0,0,1,4.458,4.431,4.443,4.443,0,0,1-4.458,4.431Zm-30.54,155.085a4.443,4.443,0,0,1-4.458-4.431,4.443,4.443,0,0,1,4.458-4.431,4.443,4.443,0,0,1,4.457,4.431,4.443,4.443,0,0,1-4.457,4.431Zm0-31.017a4.443,4.443,0,0,1-4.458-4.431,4.443,4.443,0,0,1,4.458-4.431,4.443,4.443,0,0,1,4.457,4.431A4.443,4.443,0,0,1,912.986-246.1Zm0-31.017a4.443,4.443,0,0,1-4.458-4.431,4.443,4.443,0,0,1,4.458-4.431,4.443,4.443,0,0,1,4.457,4.431A4.443,4.443,0,0,1,912.986-277.122Zm0-31.017a4.443,4.443,0,0,1-4.458-4.431A4.443,4.443,0,0,1,912.986-317a4.443,4.443,0,0,1,4.457,4.431,4.443,4.443,0,0,1-4.457,4.431Zm0-31.017a4.443,4.443,0,0,1-4.458-4.431,4.443,4.443,0,0,1,4.458-4.431,4.443,4.443,0,0,1,4.457,4.431,4.443,4.443,0,0,1-4.457,4.431Zm0-31.017a4.443,4.443,0,0,1-4.458-4.431,4.443,4.443,0,0,1,4.458-4.431,4.443,4.443,0,0,1,4.457,4.431A4.443,4.443,0,0,1,912.986-370.173ZM883.72-215.087a4.443,4.443,0,0,1-4.457-4.431,4.443,4.443,0,0,1,4.457-4.431,4.443,4.443,0,0,1,4.458,4.431,4.443,4.443,0,0,1-4.458,4.431Zm0-31.017a4.443,4.443,0,0,1-4.457-4.431,4.443,4.443,0,0,1,4.457-4.431,4.443,4.443,0,0,1,4.458,4.431A4.443,4.443,0,0,1,883.72-246.1Zm0-31.017a4.443,4.443,0,0,1-4.457-4.431,4.443,4.443,0,0,1,4.457-4.431,4.443,4.443,0,0,1,4.458,4.431A4.443,4.443,0,0,1,883.72-277.122Zm0-31.017a4.443,4.443,0,0,1-4.457-4.431A4.443,4.443,0,0,1,883.72-317a4.443,4.443,0,0,1,4.458,4.431,4.443,4.443,0,0,1-4.458,4.431Zm0-31.017a4.443,4.443,0,0,1-4.457-4.431,4.443,4.443,0,0,1,4.457-4.431,4.443,4.443,0,0,1,4.458,4.431,4.443,4.443,0,0,1-4.458,4.431Zm0-31.017a4.443,4.443,0,0,1-4.457-4.431,4.443,4.443,0,0,1,4.457-4.431,4.443,4.443,0,0,1,4.458,4.431A4.443,4.443,0,0,1,883.72-370.173ZM854.457-215.087A4.443,4.443,0,0,1,850-219.518a4.443,4.443,0,0,1,4.458-4.431,4.443,4.443,0,0,1,4.458,4.431,4.443,4.443,0,0,1-4.458,4.431Zm0-31.017A4.443,4.443,0,0,1,850-250.535a4.443,4.443,0,0,1,4.458-4.431,4.443,4.443,0,0,1,4.458,4.431,4.443,4.443,0,0,1-4.458,4.431Zm0-31.017A4.443,4.443,0,0,1,850-281.552a4.443,4.443,0,0,1,4.458-4.431,4.443,4.443,0,0,1,4.458,4.431,4.443,4.443,0,0,1-4.458,4.431Zm0-31.017A4.443,4.443,0,0,1,850-312.57,4.443,4.443,0,0,1,854.457-317a4.443,4.443,0,0,1,4.458,4.431,4.443,4.443,0,0,1-4.458,4.431Zm0-31.017A4.443,4.443,0,0,1,850-343.587a4.443,4.443,0,0,1,4.458-4.431,4.443,4.443,0,0,1,4.458,4.431,4.443,4.443,0,0,1-4.458,4.431Zm0-31.017A4.443,4.443,0,0,1,850-374.6a4.443,4.443,0,0,1,4.458-4.431,4.443,4.443,0,0,1,4.458,4.431,4.443,4.443,0,0,1-4.458,4.431Z" transform="translate(-850 565.754)"/></clipPath><clipPath id="w"><path class="b" d="M552.434-278.831c122.393,0,221.612-99.189,221.612-221.545S674.827-721.918,552.434-721.918,330.822-622.729,330.822-500.373,430.04-278.831,552.434-278.831Z" transform="translate(-330.822 721.918)"/></clipPath><clipPath id="x"><path class="l" d="M558.11-496.211a97.134,97.134,0,0,0,97.145-97.131,97.129,97.129,0,0,0-97.145-97.1,97.133,97.133,0,0,0-97.145,97.13,97.131,97.131,0,0,0,97.145,97.1Z" transform="translate(-460.964 690.441)"/></clipPath><clipPath id="y"><path class="g" d="M316.411-743.89a69.836,69.836,0,0,0,69.836-69.836,69.836,69.836,0,0,0-69.836-69.836,69.836,69.836,0,0,0-69.836,69.836A69.836,69.836,0,0,0,316.411-743.89Z" transform="translate(-246.575 883.561)"/></clipPath><clipPath id="z"><path class="e" d="M769.151-671.287a69.836,69.836,0,0,0,69.836-69.836,69.836,69.836,0,0,0-69.836-69.836,69.836,69.836,0,0,0-69.836,69.836,69.836,69.836,0,0,0,69.836,69.836Z" transform="translate(-699.315 810.959)"/></clipPath><clipPath id="aa"><path class="g" d="M213.426-867.668a25.755,25.755,0,0,0,25.755-25.755,25.755,25.755,0,0,0-25.755-25.755,25.755,25.755,0,0,0-25.755,25.755A25.755,25.755,0,0,0,213.426-867.668Z" transform="translate(-187.671 919.178)"/></clipPath><clipPath id="ab"><path class="b" d="M234.175-691.924A34.175,34.175,0,0,0,268.35-726.1a34.175,34.175,0,0,0-34.175-34.175A34.175,34.175,0,0,0,200-726.1,34.175,34.175,0,0,0,234.175-691.924Z" transform="translate(-200 760.274)"/></clipPath></defs><g class="m" transform="translate(-2561.106 -5459.027) rotate(11)"><g transform="translate(3832.633 4513.034)"><g class="n" transform="translate(0 126.795)"><path class="b" d="M39.726-1115.753H231.9v631.991H39.726Z" transform="translate(-44.679 1110.8)"/></g><g class="o" transform="translate(545.81 400.195)"><path class="p" d="M417.123-926.712H609.3V133.21H417.123Z" transform="translate(-422.076 921.759)"/></g><g class="q" transform="translate(545.81)"><path class="b" d="M417.123-1203.424H609.3v1090.63H417.123Z" transform="translate(-422.076 1198.472)"/></g><g class="r" transform="translate(0 1113.414)"><path class="s" d="M39.726-433.562H231.9V198.429H39.726Z" transform="translate(-44.679 428.609)"/></g><g class="t" transform="translate(182.267 251.608)"><path class="u" d="M165.753-1029.452H539.2v1136.2H165.753Z" transform="translate(-170.706 1024.499)"/></g><g class="v" transform="translate(182.267 251.351)"><g class="w" transform="translate(-4.953 -5.687)"><g class="x" transform="translate(4.953 4.953)"><path class="y" d="M165.753-1029.629H539.2v822.182H165.753Z" transform="translate(-170.706 1025.41)"/></g></g></g><g class="z" transform="translate(910.344 670.24)"><path class="aa" d="M669.178-739.992H861.351V52.858H669.178Z" transform="translate(-674.131 735.039)"/></g><g class="ab" transform="translate(910.344 930.156)"><g class="ac" transform="translate(-4.953 -4.953)"><g class="ad" transform="translate(4.953 4.953)"><path class="i" d="M669.178-560.274H861.169V71.194H669.178Z" transform="translate(-674.131 555.321)"/></g></g></g><g class="ae" transform="translate(74.294 802.371)"><path class="j" d="M91.1-648.63h41.6v274.391H91.1Z" transform="translate(-96.049 643.677)"/></g><g class="af" transform="translate(555.716 263.495)"><g class="ag" transform="translate(-4.953 -12.878)"><g class="ah" transform="translate(4.953 12.878)"><path class="j" d="M423.973-1021.233H780.065v355.986H423.973Z" transform="translate(-428.925 1016.28)"/></g><g class="ai" transform="translate(178.046 0.733)"><g class="aj" transform="translate(-173.093 12.145)"><path class="b" d="M543.657-1029.629H917.97V105.437H543.657Z" transform="translate(-375.516 1012.533)"/></g></g><g class="ak" transform="translate(178.046 184.4)"><g class="ah" transform="translate(-173.093 -171.522)"><path class="al" d="M543.657-902.635h183v304.378h-183Z" transform="translate(-375.516 1069.204)"/></g></g></g></g><g class="am" transform="translate(1166.905 917.278)"><path class="d" d="M846.575-569.178h166.418v360.572H846.575Z" transform="translate(-851.528 564.225)"/></g><g class="an" transform="translate(416.044 691.426)"><path class="b" d="M327.4-725.342h453.13v452.993H327.4Z" transform="translate(-332.35 720.389)"/></g><g class="ao" transform="translate(604.263 736.949)"><path class="ap" d="M457.54-693.866h204.2V-489.73H457.54Z" transform="translate(-462.493 688.913)"/></g><g class="aq" transform="translate(294.203 457.649)"><path class="ap" d="M243.151-886.986H392.728v149.578H243.151Z" transform="translate(-248.104 882.033)"/></g><g class="ar" transform="translate(948.977 562.651)"><path class="e" d="M695.89-814.383H845.468v149.578H695.89Z" transform="translate(-700.843 809.43)"/></g><g class="as" transform="translate(209.013 406.139)"><path class="k" d="M184.247-922.6h61.416v61.416H184.247Z" transform="translate(-189.199 917.65)"/></g><g class="at" transform="translate(226.843 635.953)"><path class="b" d="M196.575-763.7h78.256v78.256H196.575Z" transform="translate(-201.528 758.746)"/></g></g></g></svg>