<svg id="Layer_1" data-name="Layer 1" xmlns="http://www.w3.org/2000/svg" xmlns:xlink="http://www.w3.org/1999/xlink" viewBox="0 0 1196.18 1280"><defs><style>.cls-1{fill:none;}.cls-2{clip-path:url(#clip-path);}.cls-3{fill:#f3f1f8;opacity:0.42;}.cls-4{clip-path:url(#clip-path-2);}.cls-5{isolation:isolate;}.cls-6{clip-path:url(#clip-path-3);}.cls-7{clip-path:url(#clip-path-4);}.cls-8{clip-path:url(#clip-path-5);}.cls-9{fill:#f2f2f2;}.cls-10{clip-path:url(#clip-path-6);}.cls-11{clip-path:url(#clip-path-7);}.cls-12{fill:#28a4a8;}.cls-13{clip-path:url(#clip-path-8);}.cls-14{clip-path:url(#clip-path-9);}.cls-15{clip-path:url(#clip-path-10);}.cls-16{clip-path:url(#clip-path-11);}.cls-17{fill:#188ac0;}.cls-18{clip-path:url(#clip-path-12);}.cls-19{clip-path:url(#clip-path-13);}.cls-20{fill:#2b8cbc;}.cls-21{clip-path:url(#clip-path-14);}.cls-22{clip-path:url(#clip-path-15);}.cls-23{clip-path:url(#clip-path-16);}.cls-24{clip-path:url(#clip-path-18);}.cls-25{fill:#a9ddde;}.cls-26{clip-path:url(#clip-path-20);}.cls-27{clip-path:url(#clip-path-21);}.cls-28{fill:#238bbe;}.cls-29{clip-path:url(#clip-path-22);}.cls-30{clip-path:url(#clip-path-23);}.cls-31{clip-path:url(#clip-path-24);}.cls-32{clip-path:url(#clip-path-26);}.cls-33{fill:#1ca4a9;}.cls-34{clip-path:url(#clip-path-28);}.cls-35{clip-path:url(#clip-path-29);}.cls-36{clip-path:url(#clip-path-30);}.cls-37{clip-path:url(#clip-path-31);}.cls-38{clip-path:url(#clip-path-32);}.cls-39{clip-path:url(#clip-path-34);}.cls-40{clip-path:url(#clip-path-36);}.cls-41{clip-path:url(#clip-path-37);}.cls-42{clip-path:url(#clip-path-40);}.cls-43{clip-path:url(#clip-path-41);}.cls-44{clip-path:url(#clip-path-44);}.cls-45{clip-path:url(#clip-path-45);}.cls-46{clip-path:url(#clip-path-46);}.cls-47{clip-path:url(#clip-path-47);}.cls-48{fill:#55afb3;}.cls-49{clip-path:url(#clip-path-48);}.cls-50{clip-path:url(#clip-path-49);}.cls-51{clip-path:url(#clip-path-50);}.cls-52{clip-path:url(#clip-path-51);}</style><clipPath id="clip-path"><rect class="cls-1" x="-723.82" width="1920" height="1280"/></clipPath><clipPath id="clip-path-2"><rect class="cls-1" x="380.82" y="-266.33" width="1154.9" height="1539.87" transform="translate(281.08 1348.18) rotate(-79)"/></clipPath><clipPath id="clip-path-3"><rect class="cls-1" x="92.18" y="-210.2" width="1732.25" height="1427.75"/></clipPath><clipPath id="clip-path-4"><path class="cls-1" d="M497.55-365.9a91.09,91.09,0,0,1,72.09,106.75l-84,431.93a91.09,91.09,0,0,1-106.83,72l-89.46-17.39L390.72-293.93a91.08,91.08,0,0,1,106.83-72Z"/></clipPath><clipPath id="clip-path-5"><rect class="cls-1" x="289.18" y="-210.2" width="298" height="472.5"/></clipPath><clipPath id="clip-path-6"><path class="cls-1" d="M981.16,6.62a91.08,91.08,0,0,1,72.09,106.76l-154,792.4a91.08,91.08,0,0,1-106.83,72q-49.41-9.6-101,42.19l183-941.35A91.09,91.09,0,0,1,981.16,6.62Z"/></clipPath><clipPath id="clip-path-7"><rect class="cls-1" x="691.18" y="-10.95" width="379.5" height="1065.75"/></clipPath><clipPath id="clip-path-8"><path class="cls-1" d="M1057.52-386.22a91.1,91.1,0,0,1,72.09,106.78L975.53,513.24a91.12,91.12,0,0,1-106.84,72q-49.41-9.62-106.84,72L950.69-314.21a91.1,91.1,0,0,1,106.83-72Z"/></clipPath><clipPath id="clip-path-9"><rect class="cls-1" x="761.68" y="-210.2" width="385.5" height="902.25"/></clipPath><clipPath id="clip-path-10"><path class="cls-1" d="M309.29,602.59a91.08,91.08,0,0,1,72.09,106.75l-84,431.93a91.08,91.08,0,0,1-106.83,72l-89.46-17.39L202.46,674.56A91.09,91.09,0,0,1,309.29,602.59Z"/></clipPath><clipPath id="clip-path-11"><rect class="cls-1" x="100.93" y="585.05" width="298" height="632.5"/></clipPath><clipPath id="clip-path-12"><path class="cls-1" d="M653.88,930.93a90.25,90.25,0,0,1-38,.7L437.5,896.94a90.29,90.29,0,0,1-34.92-14.86Zm43.64-24.31a94.43,94.43,0,0,1-7.91,7l-313.69-61a90.93,90.93,0,0,1-4.7-9.49Zm19.32-28.54a91,91,0,0,1-5.09,10.11L364.94,820.78A90.79,90.79,0,0,1,364,809.5Zm8-30.24-2.26,11.64-.1.52L365.58,790.63l.1-.52,2.26-11.64Zm6.33-32.57-3.31,17L371,762.92l3.31-17ZM737,785.12l-3.4,17.51L376.73,733.26l3.4-17.5Zm6.14-31.6-4.06,20.91L382.21,705.06l4.07-20.91Zm6.14-31.6-4.63,23.82L387.79,676.37l4.63-23.82Zm6.05-31.12-5.1,26.26L393.37,647.69l5.1-26.26Zm.57-2.92L399,618.52,562.2-220.87l145.72,28.32,1-5.12,211.15,41Z"/></clipPath><clipPath id="clip-path-13"><rect class="cls-1" x="348.18" y="-210.2" width="572" height="1159.25"/></clipPath><clipPath id="clip-path-14"><path class="cls-1" d="M563.24-226.25l356.87,69.37L855.55,175.21a90.94,90.94,0,0,1-106.58,72,91,91,0,0,0-106.58,72l-21,107.87c-19.18,98.69-114.62,163.17-213.17,144Z"/></clipPath><clipPath id="clip-path-15"><rect class="cls-1" x="408.18" y="-210.2" width="512" height="850.75"/></clipPath><clipPath id="clip-path-16"><rect class="cls-1" x="252.64" y="20.15" width="823.17" height="373.45" transform="translate(334.41 819.42) rotate(-79)"/></clipPath><clipPath id="clip-path-18"><rect class="cls-1" x="257.59" y="25.11" width="813.27" height="363.54" transform="translate(334.41 819.42) rotate(-79)"/></clipPath><clipPath id="clip-path-20"><path class="cls-1" d="M1362.12,434.87l-99.83,513.54a91.1,91.1,0,0,1-106.83,72q-49.41-9.61-106.84,72L1198,323.87a91.16,91.16,0,0,0,73.67,93.42Z"/></clipPath><clipPath id="clip-path-21"><rect class="cls-1" x="1048.43" y="323.8" width="328.75" height="803.5"/></clipPath><clipPath id="clip-path-22"><path class="cls-1" d="M1237.79,596.38a91,91,0,0,1,72,106.66l-83.88,431.57a91,91,0,0,1-178.74-34.75l83.88-431.56A91,91,0,0,1,1237.79,596.38Z"/></clipPath><clipPath id="clip-path-23"><rect class="cls-1" x="1029.68" y="578.8" width="297.5" height="638.75"/></clipPath><clipPath id="clip-path-24"><rect class="cls-1" x="862.53" y="805.64" width="631.99" height="192.17" transform="translate(68.5 1886.55) rotate(-79)"/></clipPath><clipPath id="clip-path-26"><rect class="cls-1" x="867.49" y="810.59" width="622.09" height="182.27" transform="translate(68.5 1886.55) rotate(-79)"/></clipPath><clipPath id="clip-path-28"><path class="cls-1" d="M346.79,404.5a16,16,0,1,1,18.6-12.64A15.89,15.89,0,0,1,346.79,404.5Zm14.79-76.1a16,16,0,1,1,18.6-12.64A15.89,15.89,0,0,1,361.58,328.4ZM317.2,556.7a16,16,0,1,1,18.61-12.65A15.92,15.92,0,0,1,317.2,556.7ZM332,480.6A16,16,0,1,1,350.6,468,15.92,15.92,0,0,1,332,480.6Z"/></clipPath><clipPath id="clip-path-29"><rect class="cls-1" x="301.43" y="293.8" width="82" height="266"/></clipPath><clipPath id="clip-path-30"><ellipse class="cls-1" cx="1064.41" cy="59.82" rx="173.04" ry="173.09" transform="translate(802.38 1093.2) rotate(-78.99)"/></clipPath><clipPath id="clip-path-31"><rect class="cls-1" x="861.43" y="-143.2" width="406" height="406"/></clipPath><clipPath id="clip-path-32"><rect class="cls-1" x="520.94" y="176.51" width="1126.29" height="542.84" transform="translate(437.53 1426.63) rotate(-79)"/></clipPath><clipPath id="clip-path-34"><rect class="cls-1" x="891.25" y="-113.18" width="346.7" height="346.7" transform="translate(802.4 1093.73) rotate(-79)"/></clipPath><clipPath id="clip-path-36"><path class="cls-1" d="M1457.45-52.43,1260.15,962.63a91.1,91.1,0,0,1-106.81,72L974.48,999.91a91.09,91.09,0,0,1-72-106.81L1099.74-122Z"/></clipPath><clipPath id="clip-path-37"><rect class="cls-1" x="884.93" y="-122.2" width="382.5" height="385"/></clipPath><clipPath id="clip-path-40"><rect class="cls-1" x="974.32" y="132.83" width="294.47" height="173.09" transform="translate(692.21 1278.47) rotate(-79)"/></clipPath><clipPath id="clip-path-41"><rect class="cls-1" x="1008.43" y="58.3" width="226.25" height="204.5"/></clipPath><clipPath id="clip-path-44"><ellipse class="cls-1" cx="884.02" cy="510.11" rx="221.54" ry="221.61" transform="translate(214.34 1280.32) rotate(-78.98)"/></clipPath><clipPath id="clip-path-45"><rect class="cls-1" x="624.18" y="250.3" width="519.75" height="519.75"/></clipPath><clipPath id="clip-path-46"><path class="cls-1" d="M943.13,540.15a97.11,97.11,0,1,0-76.84-113.86A97.13,97.13,0,0,0,943.13,540.15Z"/></clipPath><clipPath id="clip-path-47"><rect class="cls-1" x="847.68" y="330.8" width="228" height="228"/></clipPath><clipPath id="clip-path-48"><circle class="cls-1" cx="688.99" cy="79.5" r="69.84" transform="translate(145.59 510.47) rotate(-45)"/></clipPath><clipPath id="clip-path-49"><rect class="cls-1" x="606.93" y="-2.45" width="164" height="164"/></clipPath><clipPath id="clip-path-50"><circle class="cls-1" cx="560.64" cy="199.86" r="34.18"/></clipPath><clipPath id="clip-path-51"><rect class="cls-1" x="520.43" y="159.55" width="80.5" height="80.5"/></clipPath></defs><title>login_static_image</title><g class="cls-2"><path class="cls-3" d="M940.86-606.81q22.53,0,45,1.09t44.91,3.26q22.43,2.18,44.7,5.44t44.37,7.59q22.1,4.33,43.94,9.72t43.4,11.85q21.55,6.43,42.76,13.92t42,16q20.8,8.49,41.17,18t40.22,20q19.86,10.47,39.18,21.88t38,23.75q18.72,12.35,36.82,25.57t35.5,27.31q17.41,14.08,34.1,29t32.61,30.61q15.93,15.7,31.06,32.15t29.41,33.62q14.3,17.16,27.71,35t25.93,36.29q12.51,18.47,24.09,37.51t22.2,38.63q10.6,19.57,20.24,39.65t18.25,40.59q8.63,20.52,16.21,41.42t14.13,42.16q6.54,21.24,12,42.78t9.86,43.32q4.39,21.78,7.7,43.74T1854,209q2.21,22.1,3.31,44.28t1.1,44.38q0,22.2-1.1,44.38T1854,386.34q-2.22,22.11-5.52,44.07t-7.7,43.74q-4.39,21.78-9.86,43.31t-12,42.79q-6.54,21.25-14.13,42.15t-16.21,41.42q-8.61,20.52-18.25,40.59T1750,724.07q-10.62,19.57-22.2,38.62t-24.09,37.51q-12.52,18.46-25.93,36.3t-27.71,35q-14.3,17.16-29.41,33.61t-31.06,32.16Q1573.72,953,1557,967.88t-34.1,29q-17.42,14.08-35.5,27.31t-36.82,25.56q-18.74,12.35-38,23.75t-39.18,21.89q-19.86,10.45-40.22,20t-41.17,18q-20.82,8.49-42,16t-42.76,13.93q-21.56,6.45-43.4,11.84t-43.94,9.73q-22.09,4.34-44.37,7.59t-44.7,5.43q-22.41,2.18-44.91,3.27t-45,1.09q-22.51,0-45-1.09t-44.91-3.27q-22.41-2.17-44.69-5.43t-44.37-7.59q-22.1-4.33-43.94-9.73t-43.4-11.84q-21.56-6.45-42.76-13.93t-42-16q-20.81-8.5-41.17-18t-40.22-20q-19.87-10.47-39.19-21.89t-38-23.75q-18.74-12.33-36.82-25.56t-35.5-27.31q-17.42-14.1-34.1-29t-32.62-30.61q-15.91-15.71-31-32.16T231.63,871.5q-14.3-17.18-27.71-35T178,800.2q-12.51-18.47-24.09-37.51t-22.2-38.62q-10.62-19.59-20.25-39.66T93.2,643.82Q84.59,623.31,77,602.4T62.87,560.25q-6.54-21.25-12-42.79T41,474.15q-4.4-21.78-7.7-43.74t-5.51-44.07q-2.21-22.09-3.31-44.27t-1.11-44.38q0-22.21,1.11-44.38T27.78,209Q30,186.94,33.29,165T41,121.23q4.4-21.78,9.87-43.32t12-42.78Q69.41,13.88,77-7T93.2-48.45Q101.83-69,111.45-89t20.25-39.65q10.62-19.59,22.2-38.63T178-204.83q12.51-18.45,25.93-36.29t27.71-35q14.28-17.16,29.41-33.62t31-32.15Q308-357.59,324.71-372.5t34.1-29q17.4-14.08,35.5-27.31t36.82-25.57q18.72-12.33,38-23.75T508.36-500q19.86-10.47,40.22-20t41.17-18q20.81-8.5,42-16t42.76-13.92q21.56-6.45,43.4-11.85t43.94-9.72q22.1-4.34,44.37-7.59t44.69-5.44q22.43-2.17,44.91-3.26T940.86-606.81Z"/><g class="cls-4"><g class="cls-5"><g class="cls-6"><g class="cls-7"><g class="cls-5"><g class="cls-8"><rect class="cls-9" x="122.2" y="-156.66" width="631.99" height="192.17" transform="translate(414.05 381.13) rotate(-79)"/></g></g></g><g class="cls-10"><g class="cls-5"><g class="cls-11"><rect class="cls-12" x="351.03" y="425.89" width="1059.92" height="192.17" transform="translate(200.5 1287.18) rotate(-79)"/></g></g></g><g class="cls-13"><g class="cls-5"><g class="cls-14"><rect class="cls-9" x="409.1" y="48.12" width="1090.63" height="192.17" transform="translate(630.75 1053.58) rotate(-79)"/></g></g></g><g class="cls-15"><g class="cls-5"><g class="cls-16"><rect class="cls-17" x="-66.05" y="811.83" width="631.99" height="192.17" transform="translate(-688.98 980.03) rotate(-79)"/></g></g></g><g class="cls-18"><g class="cls-5"><g class="cls-19"><rect class="cls-20" x="66.07" y="174.76" width="1136.2" height="373.45" transform="translate(158.32 915.03) rotate(-79)"/></g></g></g><g class="cls-21"><g class="cls-5"><g class="cls-22"><g class="cls-23"><g class="cls-5"><g class="cls-22"><g class="cls-24"><g class="cls-5"><g class="cls-22"><path class="cls-25" d="M559.32-232,925.91-160.8,769,646.28l-188-36.54L402.45,575Z"/></g></g></g></g></g></g></g></g></g><g class="cls-26"><g class="cls-5"><g class="cls-27"><rect class="cls-28" x="816.35" y="629.45" width="792.85" height="192.17" transform="translate(269.16 1777.59) rotate(-79)"/></g></g></g><g class="cls-29"><g class="cls-5"><g class="cls-30"><g class="cls-31"><g class="cls-5"><g class="cls-30"><g class="cls-32"><g class="cls-5"><g class="cls-30"><rect class="cls-33" x="862.76" y="805.46" width="631.47" height="191.99" transform="translate(68.73 1886.28) rotate(-79)"/></g></g></g></g></g></g></g></g></g><g class="cls-34"><g class="cls-5"><g class="cls-35"><rect class="cls-33" x="205.24" y="406.08" width="274.39" height="41.6" transform="translate(-141.94 681.58) rotate(-79)"/></g></g></g><g class="cls-36"><g class="cls-5"><g class="cls-37"><g class="cls-38"><g class="cls-5"><g class="cls-37"><g class="cls-39"><g class="cls-5"><g class="cls-37"><rect class="cls-33" x="886.41" y="-118.23" width="355.99" height="356.09" transform="translate(802.59 1093.26) rotate(-79)"/></g></g></g><g class="cls-40"><g class="cls-5"><g class="cls-41"><g class="cls-39"><g class="cls-5"><g class="cls-41"><rect class="cls-9" x="603.72" y="277.89" width="1135.07" height="374.31" transform="translate(491.26 1526.05) rotate(-79)"/></g></g></g></g></g></g><g class="cls-42"><g class="cls-5"><g class="cls-43"><g class="cls-39"><g class="cls-5"><g class="cls-43"><rect class="cls-28" x="969.37" y="127.87" width="304.38" height="183" transform="translate(692.21 1278.47) rotate(-79)"/></g></g></g></g></g></g></g></g></g></g></g></g><g class="cls-44"><g class="cls-5"><g class="cls-45"><rect class="cls-9" x="657.52" y="283.54" width="452.99" height="453.13" transform="translate(214.61 1280.55) rotate(-79)"/></g></g></g><g class="cls-46"><g class="cls-5"><g class="cls-47"><rect class="cls-48" x="859.59" y="342.72" width="204.14" height="204.2" transform="translate(341.52 1303.93) rotate(-79)"/></g></g></g><g class="cls-49"><g class="cls-5"><g class="cls-50"><rect class="cls-48" x="614.2" y="4.71" width="149.58" height="149.58" transform="translate(479.49 740.65) rotate(-79)"/></g></g></g><g class="cls-51"><g class="cls-5"><g class="cls-52"><rect class="cls-9" x="521.51" y="160.73" width="78.26" height="78.26" transform="translate(257.47 712.07) rotate(-79)"/></g></g></g></g></g></g></g></svg>