<svg xmlns="http://www.w3.org/2000/svg" xmlns:xlink="http://www.w3.org/1999/xlink" width="1835" height="1862.807" viewBox="0 0 1835 1862.807"><defs><clipPath id="a"><path d="M0-1442H1539.873V-287.1H0Z" transform="translate(3772 6270)" fill="#f2f2f2" clip-rule="evenodd"/></clipPath><clipPath id="b"><path d="M134.284-1112.329a91.085,91.085,0,0,1,91.133,91.034v440.016a91.085,91.085,0,0,1-91.133,91.034H43.151v-531.051a91.085,91.085,0,0,1,91.133-91.034Z" transform="translate(-43.151 1112.329)" fill="#f2f2f2"/></clipPath><clipPath id="c"><path d="M511.681-923.287a91.088,91.088,0,0,1,91.133,91.042V-25.008a91.088,91.088,0,0,1-91.134,91.042q-50.331,0-91.133,60.695V-832.244A91.088,91.088,0,0,1,511.681-923.287Z" transform="translate(-420.548 923.287)" fill="#59afb2"/></clipPath><clipPath id="d"><path d="M511.681-1200a91.1,91.1,0,0,1,91.134,91.072V-301.42a91.1,91.1,0,0,1-91.134,91.072q-50.331,0-91.133,91.072v-989.652A91.1,91.1,0,0,1,511.681-1200Z" transform="translate(-420.548 1200)" fill="#f2f2f2"/></clipPath><clipPath id="e"><path d="M134.284-430.137A91.085,91.085,0,0,1,225.418-339.1V100.914a91.085,91.085,0,0,1-91.133,91.034H43.151V-339.1A91.085,91.085,0,0,1,134.284-430.137Z" transform="translate(-43.151 430.137)" fill="#dc2249"/></clipPath><clipPath id="f"><path d="M532.721-165.707H169.178v-855.1H317.625v-5.217h215.1Zm0,2.972v26.746H169.178v-26.746Zm0,31.7v24.269H169.178v-24.269Zm0,32.194v21.3H169.178v-21.3Zm0,32.194v17.83H169.178v-17.83Zm0,30.708v17.335H169.178V-35.941Zm0,33.184V9.626H169.178V-2.757Zm-2.05,31.2a90.711,90.711,0,0,1-3.071,10.9H174.3a90.7,90.7,0,0,1-3.071-10.9Zm-13.521,31.7a91.5,91.5,0,0,1-6.419,8.42H191.169a91.527,91.527,0,0,1-6.423-8.42Zm-38.2,32.194a90.33,90.33,0,0,1-37.118,7.925H260.064a90.33,90.33,0,0,1-37.118-7.925Z" transform="translate(-169.178 1026.027)" fill="#7a4865"/></clipPath><clipPath id="g"><path d="M169.178-1026.2H532.721v338.3a90.954,90.954,0,0,1-90.886,91.022,90.954,90.954,0,0,0-90.886,91.023v109.885c0,100.544-81.382,182.045-181.772,182.045Z" transform="translate(-169.178 1026.204)" fill="#f6cb51"/></clipPath><clipPath id="h"><rect width="373.449" height="823.173" fill="none"/></clipPath><clipPath id="i"><path d="M169.178-213.445H532.721v-813.267H169.178Z" transform="translate(-169.178 1026.712)" fill="none"/></clipPath><clipPath id="j"><path d="M854.87-658.917v523.15A91.1,91.1,0,0,1,763.736-44.7Q713.4-44.7,672.6,46.377V-736.567a91.155,91.155,0,0,0,90.143,77.65Z" transform="translate(-672.603 736.567)" fill="#238bbe"/></clipPath><clipPath id="k"><path d="M763.645-556.849a91,91,0,0,1,91.043,90.96V-26.248a91,91,0,0,1-91.043,90.96A91,91,0,0,1,672.6-26.247V-465.889A91,91,0,0,1,763.645-556.849Z" transform="translate(-672.603 556.849)" fill="#dc2249"/></clipPath><clipPath id="l"><rect width="192.173" height="631.991" fill="#dc2249"/></clipPath><clipPath id="m"><path d="M672.6,65.236H854.87V-556.849H672.6Z" transform="translate(-672.603 556.849)" fill="#ff004e"/></clipPath><clipPath id="n"><path d="M110.37-458.242A15.9,15.9,0,0,1,94.521-474.2a15.9,15.9,0,0,1,15.849-15.96,15.9,15.9,0,0,1,15.849,15.96,15.9,15.9,0,0,1-15.849,15.96Zm0,77.522a15.9,15.9,0,0,1-15.849-15.96,15.9,15.9,0,0,1,15.849-15.96,15.9,15.9,0,0,1,15.849,15.96,15.9,15.9,0,0,1-15.849,15.96Zm0-232.565a15.9,15.9,0,0,1-15.849-15.96,15.9,15.9,0,0,1,15.849-15.961,15.9,15.9,0,0,1,15.849,15.961,15.9,15.9,0,0,1-15.849,15.96Zm0,77.522a15.9,15.9,0,0,1-15.849-15.96,15.9,15.9,0,0,1,15.849-15.96,15.9,15.9,0,0,1,15.849,15.96,15.9,15.9,0,0,1-15.849,15.96Z" transform="translate(-94.52 645.205)" fill="#1ca4a9"/></clipPath><clipPath id="o"><path d="M600.49-671.728c95.6,0,173.093-77.473,173.093-173.04s-77.5-173.041-173.093-173.041S427.4-940.336,427.4-844.767,504.893-671.728,600.49-671.728Z" transform="translate(-427.397 1017.808)" fill="#0e24bb"/></clipPath><clipPath id="p"><rect width="542.839" height="1126.291" fill="#7a4865"/></clipPath><clipPath id="q"><path d="M427.4-671.1H774.1v-346.7H427.4Z" transform="translate(-427.397 1017.808)" fill="none"/></clipPath><clipPath id="r"><path d="M911.489-1026.2V7.853a91.1,91.1,0,0,1-91.1,91.1h-182.2a91.1,91.1,0,0,1-91.1-91.1V-1026.205Z" transform="translate(-547.081 1026.205)" fill="#f2f2f2"/></clipPath><clipPath id="s"><path d="M427.4-671.1H774.1v-346.7H427.4Z" transform="translate(-427.397 1017.808)" fill="#f2f2f2"/></clipPath><clipPath id="t"><path d="M547.081-899.21H720.175v294.472H547.081Z" transform="translate(-547.081 899.21)" fill="none"/></clipPath><clipPath id="v"><path d="M1002.054-401.806a4.443,4.443,0,0,1-4.457-4.431,4.443,4.443,0,0,1,4.457-4.431,4.443,4.443,0,0,1,4.458,4.431,4.443,4.443,0,0,1-4.458,4.431Zm0-31.017a4.443,4.443,0,0,1-4.457-4.431,4.443,4.443,0,0,1,4.457-4.431,4.443,4.443,0,0,1,4.458,4.431,4.443,4.443,0,0,1-4.458,4.432Zm0-31.017a4.443,4.443,0,0,1-4.457-4.431,4.443,4.443,0,0,1,4.457-4.431,4.443,4.443,0,0,1,4.458,4.431,4.443,4.443,0,0,1-4.458,4.431Zm0-31.017a4.442,4.442,0,0,1-4.457-4.431,4.443,4.443,0,0,1,4.457-4.431,4.443,4.443,0,0,1,4.458,4.431,4.443,4.443,0,0,1-4.458,4.431Zm0-31.017a4.443,4.443,0,0,1-4.457-4.431,4.443,4.443,0,0,1,4.457-4.431,4.443,4.443,0,0,1,4.458,4.431A4.443,4.443,0,0,1,1002.054-525.874Zm0-31.017a4.443,4.443,0,0,1-4.457-4.431,4.443,4.443,0,0,1,4.457-4.431,4.443,4.443,0,0,1,4.458,4.431A4.443,4.443,0,0,1,1002.054-556.891ZM972.787-401.806a4.443,4.443,0,0,1-4.458-4.431,4.443,4.443,0,0,1,4.458-4.431,4.443,4.443,0,0,1,4.458,4.431,4.443,4.443,0,0,1-4.454,4.431Zm0-31.017a4.443,4.443,0,0,1-4.458-4.431,4.443,4.443,0,0,1,4.458-4.431,4.443,4.443,0,0,1,4.458,4.431,4.443,4.443,0,0,1-4.454,4.432Zm0-31.017a4.443,4.443,0,0,1-4.458-4.431,4.443,4.443,0,0,1,4.458-4.431,4.443,4.443,0,0,1,4.458,4.431,4.443,4.443,0,0,1-4.454,4.431Zm0-31.017a4.443,4.443,0,0,1-4.458-4.431,4.443,4.443,0,0,1,4.458-4.431,4.443,4.443,0,0,1,4.458,4.431,4.443,4.443,0,0,1-4.454,4.431Zm0-31.017a4.443,4.443,0,0,1-4.458-4.431,4.443,4.443,0,0,1,4.458-4.431,4.443,4.443,0,0,1,4.458,4.431,4.443,4.443,0,0,1-4.454,4.431Zm0-31.017a4.443,4.443,0,0,1-4.458-4.431,4.443,4.443,0,0,1,4.458-4.431,4.443,4.443,0,0,1,4.458,4.431,4.443,4.443,0,0,1-4.454,4.431ZM943.522-401.806a4.443,4.443,0,0,1-4.457-4.431,4.443,4.443,0,0,1,4.457-4.431,4.443,4.443,0,0,1,4.458,4.431,4.443,4.443,0,0,1-4.454,4.431Zm0-31.017a4.443,4.443,0,0,1-4.457-4.431,4.443,4.443,0,0,1,4.457-4.431,4.443,4.443,0,0,1,4.458,4.431,4.443,4.443,0,0,1-4.454,4.432Zm0-31.017a4.443,4.443,0,0,1-4.457-4.431,4.443,4.443,0,0,1,4.457-4.431,4.443,4.443,0,0,1,4.458,4.431,4.443,4.443,0,0,1-4.454,4.431Zm0-31.017a4.443,4.443,0,0,1-4.457-4.431,4.443,4.443,0,0,1,4.457-4.431,4.443,4.443,0,0,1,4.458,4.431,4.443,4.443,0,0,1-4.454,4.431Zm0-31.017a4.443,4.443,0,0,1-4.457-4.431,4.443,4.443,0,0,1,4.457-4.431,4.443,4.443,0,0,1,4.458,4.431,4.443,4.443,0,0,1-4.454,4.431Zm0-31.017a4.443,4.443,0,0,1-4.457-4.431,4.443,4.443,0,0,1,4.457-4.431,4.443,4.443,0,0,1,4.458,4.431,4.443,4.443,0,0,1-4.454,4.431ZM912.982-401.806a4.443,4.443,0,0,1-4.458-4.431,4.443,4.443,0,0,1,4.458-4.431,4.443,4.443,0,0,1,4.458,4.431,4.443,4.443,0,0,1-4.454,4.431Zm0-31.017a4.443,4.443,0,0,1-4.458-4.431,4.443,4.443,0,0,1,4.458-4.431,4.443,4.443,0,0,1,4.458,4.431,4.443,4.443,0,0,1-4.454,4.432Zm0-31.017a4.443,4.443,0,0,1-4.458-4.431,4.443,4.443,0,0,1,4.458-4.431,4.443,4.443,0,0,1,4.458,4.431,4.443,4.443,0,0,1-4.454,4.431Zm0-31.017a4.443,4.443,0,0,1-4.458-4.431,4.443,4.443,0,0,1,4.458-4.431,4.443,4.443,0,0,1,4.458,4.431,4.443,4.443,0,0,1-4.454,4.431Zm0-31.017a4.443,4.443,0,0,1-4.458-4.431,4.443,4.443,0,0,1,4.458-4.431,4.443,4.443,0,0,1,4.458,4.431,4.443,4.443,0,0,1-4.454,4.431Zm0-31.017a4.443,4.443,0,0,1-4.458-4.431,4.443,4.443,0,0,1,4.458-4.431,4.443,4.443,0,0,1,4.458,4.431,4.443,4.443,0,0,1-4.454,4.431ZM883.716-401.806a4.443,4.443,0,0,1-4.458-4.431,4.443,4.443,0,0,1,4.458-4.431,4.443,4.443,0,0,1,4.458,4.431,4.443,4.443,0,0,1-4.454,4.431Zm0-31.017a4.443,4.443,0,0,1-4.458-4.431,4.443,4.443,0,0,1,4.458-4.431,4.443,4.443,0,0,1,4.458,4.431,4.443,4.443,0,0,1-4.454,4.432Zm0-31.017a4.443,4.443,0,0,1-4.458-4.431,4.443,4.443,0,0,1,4.458-4.431,4.443,4.443,0,0,1,4.458,4.431,4.443,4.443,0,0,1-4.454,4.431Zm0-31.017a4.443,4.443,0,0,1-4.458-4.431,4.443,4.443,0,0,1,4.458-4.431,4.443,4.443,0,0,1,4.458,4.431,4.443,4.443,0,0,1-4.454,4.431Zm0-31.017a4.443,4.443,0,0,1-4.458-4.431,4.443,4.443,0,0,1,4.458-4.431,4.443,4.443,0,0,1,4.458,4.431,4.443,4.443,0,0,1-4.454,4.431Zm0-31.017a4.443,4.443,0,0,1-4.458-4.431,4.443,4.443,0,0,1,4.458-4.431,4.443,4.443,0,0,1,4.458,4.431,4.443,4.443,0,0,1-4.454,4.431ZM854.457-401.806A4.443,4.443,0,0,1,850-406.237a4.443,4.443,0,0,1,4.458-4.431,4.443,4.443,0,0,1,4.458,4.431,4.443,4.443,0,0,1-4.458,4.431Zm0-31.017A4.443,4.443,0,0,1,850-437.254a4.443,4.443,0,0,1,4.458-4.431,4.443,4.443,0,0,1,4.458,4.431,4.443,4.443,0,0,1-4.458,4.432Zm0-31.017A4.443,4.443,0,0,1,850-468.271a4.443,4.443,0,0,1,4.458-4.431,4.443,4.443,0,0,1,4.458,4.431,4.443,4.443,0,0,1-4.458,4.431Zm0-31.017A4.443,4.443,0,0,1,850-499.288a4.443,4.443,0,0,1,4.458-4.431,4.443,4.443,0,0,1,4.458,4.431,4.443,4.443,0,0,1-4.458,4.431Zm0-31.017A4.443,4.443,0,0,1,850-530.305a4.443,4.443,0,0,1,4.458-4.431,4.443,4.443,0,0,1,4.458,4.431,4.443,4.443,0,0,1-4.458,4.431Zm0-31.017A4.443,4.443,0,0,1,850-561.322a4.443,4.443,0,0,1,4.458-4.431,4.443,4.443,0,0,1,4.458,4.431,4.443,4.443,0,0,1-4.458,4.431Zm147.6,341.8a4.443,4.443,0,0,1-4.457-4.431,4.443,4.443,0,0,1,4.457-4.431,4.443,4.443,0,0,1,4.458,4.431,4.443,4.443,0,0,1-4.458,4.431Zm0-31.017a4.443,4.443,0,0,1-4.457-4.431,4.443,4.443,0,0,1,4.457-4.431,4.443,4.443,0,0,1,4.458,4.431A4.443,4.443,0,0,1,1002.054-246.1Zm0-31.017a4.443,4.443,0,0,1-4.457-4.431,4.443,4.443,0,0,1,4.457-4.431,4.443,4.443,0,0,1,4.458,4.431A4.443,4.443,0,0,1,1002.054-277.122Zm0-31.017a4.443,4.443,0,0,1-4.457-4.431,4.443,4.443,0,0,1,4.457-4.431,4.443,4.443,0,0,1,4.458,4.431,4.443,4.443,0,0,1-4.458,4.431Zm0-31.017a4.443,4.443,0,0,1-4.457-4.431,4.443,4.443,0,0,1,4.457-4.431,4.443,4.443,0,0,1,4.458,4.431,4.443,4.443,0,0,1-4.458,4.431Zm0-31.017A4.443,4.443,0,0,1,997.6-374.6a4.443,4.443,0,0,1,4.457-4.431,4.443,4.443,0,0,1,4.458,4.431A4.443,4.443,0,0,1,1002.054-370.173ZM972.791-215.087a4.443,4.443,0,0,1-4.458-4.431,4.443,4.443,0,0,1,4.458-4.431,4.443,4.443,0,0,1,4.458,4.431,4.443,4.443,0,0,1-4.458,4.431Zm0-31.017a4.443,4.443,0,0,1-4.458-4.431,4.443,4.443,0,0,1,4.458-4.431,4.443,4.443,0,0,1,4.458,4.431,4.443,4.443,0,0,1-4.458,4.431Zm0-31.017a4.443,4.443,0,0,1-4.458-4.431,4.443,4.443,0,0,1,4.458-4.431,4.443,4.443,0,0,1,4.458,4.431,4.443,4.443,0,0,1-4.458,4.431Zm0-31.017a4.443,4.443,0,0,1-4.458-4.431A4.443,4.443,0,0,1,972.791-317a4.443,4.443,0,0,1,4.458,4.431,4.443,4.443,0,0,1-4.458,4.431Zm0-31.017a4.443,4.443,0,0,1-4.458-4.431,4.443,4.443,0,0,1,4.458-4.431,4.443,4.443,0,0,1,4.458,4.431,4.443,4.443,0,0,1-4.458,4.431Zm0-31.017a4.443,4.443,0,0,1-4.458-4.431,4.443,4.443,0,0,1,4.458-4.431,4.443,4.443,0,0,1,4.458,4.431,4.443,4.443,0,0,1-4.458,4.431ZM943.526-215.087a4.443,4.443,0,0,1-4.458-4.431,4.443,4.443,0,0,1,4.458-4.431,4.443,4.443,0,0,1,4.458,4.431,4.443,4.443,0,0,1-4.458,4.431Zm0-31.017a4.443,4.443,0,0,1-4.458-4.431,4.443,4.443,0,0,1,4.458-4.431,4.443,4.443,0,0,1,4.458,4.431,4.443,4.443,0,0,1-4.458,4.431Zm0-31.017a4.443,4.443,0,0,1-4.458-4.431,4.443,4.443,0,0,1,4.458-4.431,4.443,4.443,0,0,1,4.458,4.431,4.443,4.443,0,0,1-4.458,4.431Zm0-31.017a4.443,4.443,0,0,1-4.458-4.431A4.443,4.443,0,0,1,943.526-317a4.443,4.443,0,0,1,4.458,4.431,4.443,4.443,0,0,1-4.458,4.431Zm0-31.017a4.443,4.443,0,0,1-4.458-4.431,4.443,4.443,0,0,1,4.458-4.431,4.443,4.443,0,0,1,4.458,4.431,4.443,4.443,0,0,1-4.458,4.431Zm0-31.017a4.443,4.443,0,0,1-4.458-4.431,4.443,4.443,0,0,1,4.458-4.431,4.443,4.443,0,0,1,4.458,4.431,4.443,4.443,0,0,1-4.458,4.431Zm-30.54,155.085a4.443,4.443,0,0,1-4.458-4.431,4.443,4.443,0,0,1,4.458-4.431,4.443,4.443,0,0,1,4.457,4.431,4.443,4.443,0,0,1-4.457,4.431Zm0-31.017a4.443,4.443,0,0,1-4.458-4.431,4.443,4.443,0,0,1,4.458-4.431,4.443,4.443,0,0,1,4.457,4.431A4.443,4.443,0,0,1,912.986-246.1Zm0-31.017a4.443,4.443,0,0,1-4.458-4.431,4.443,4.443,0,0,1,4.458-4.431,4.443,4.443,0,0,1,4.457,4.431A4.443,4.443,0,0,1,912.986-277.122Zm0-31.017a4.443,4.443,0,0,1-4.458-4.431A4.443,4.443,0,0,1,912.986-317a4.443,4.443,0,0,1,4.457,4.431,4.443,4.443,0,0,1-4.457,4.431Zm0-31.017a4.443,4.443,0,0,1-4.458-4.431,4.443,4.443,0,0,1,4.458-4.431,4.443,4.443,0,0,1,4.457,4.431,4.443,4.443,0,0,1-4.457,4.431Zm0-31.017a4.443,4.443,0,0,1-4.458-4.431,4.443,4.443,0,0,1,4.458-4.431,4.443,4.443,0,0,1,4.457,4.431A4.443,4.443,0,0,1,912.986-370.173ZM883.72-215.087a4.443,4.443,0,0,1-4.457-4.431,4.443,4.443,0,0,1,4.457-4.431,4.443,4.443,0,0,1,4.458,4.431,4.443,4.443,0,0,1-4.458,4.431Zm0-31.017a4.443,4.443,0,0,1-4.457-4.431,4.443,4.443,0,0,1,4.457-4.431,4.443,4.443,0,0,1,4.458,4.431A4.443,4.443,0,0,1,883.72-246.1Zm0-31.017a4.443,4.443,0,0,1-4.457-4.431,4.443,4.443,0,0,1,4.457-4.431,4.443,4.443,0,0,1,4.458,4.431A4.443,4.443,0,0,1,883.72-277.122Zm0-31.017a4.443,4.443,0,0,1-4.457-4.431A4.443,4.443,0,0,1,883.72-317a4.443,4.443,0,0,1,4.458,4.431,4.443,4.443,0,0,1-4.458,4.431Zm0-31.017a4.443,4.443,0,0,1-4.457-4.431,4.443,4.443,0,0,1,4.457-4.431,4.443,4.443,0,0,1,4.458,4.431,4.443,4.443,0,0,1-4.458,4.431Zm0-31.017a4.443,4.443,0,0,1-4.457-4.431,4.443,4.443,0,0,1,4.457-4.431,4.443,4.443,0,0,1,4.458,4.431A4.443,4.443,0,0,1,883.72-370.173ZM854.457-215.087A4.443,4.443,0,0,1,850-219.518a4.443,4.443,0,0,1,4.458-4.431,4.443,4.443,0,0,1,4.458,4.431,4.443,4.443,0,0,1-4.458,4.431Zm0-31.017A4.443,4.443,0,0,1,850-250.535a4.443,4.443,0,0,1,4.458-4.431,4.443,4.443,0,0,1,4.458,4.431,4.443,4.443,0,0,1-4.458,4.431Zm0-31.017A4.443,4.443,0,0,1,850-281.552a4.443,4.443,0,0,1,4.458-4.431,4.443,4.443,0,0,1,4.458,4.431,4.443,4.443,0,0,1-4.458,4.431Zm0-31.017A4.443,4.443,0,0,1,850-312.57,4.443,4.443,0,0,1,854.457-317a4.443,4.443,0,0,1,4.458,4.431,4.443,4.443,0,0,1-4.458,4.431Zm0-31.017A4.443,4.443,0,0,1,850-343.587a4.443,4.443,0,0,1,4.458-4.431,4.443,4.443,0,0,1,4.458,4.431,4.443,4.443,0,0,1-4.458,4.431Zm0-31.017A4.443,4.443,0,0,1,850-374.6a4.443,4.443,0,0,1,4.458-4.431,4.443,4.443,0,0,1,4.458,4.431,4.443,4.443,0,0,1-4.458,4.431Z" transform="translate(-850 565.754)" fill="#dc2249"/></clipPath><clipPath id="w"><path d="M552.434-278.831c122.393,0,221.612-99.189,221.612-221.545S674.827-721.918,552.434-721.918,330.822-622.729,330.822-500.373,430.04-278.831,552.434-278.831Z" transform="translate(-330.822 721.918)" fill="#f2f2f2"/></clipPath><clipPath id="x"><path d="M558.11-496.211a97.134,97.134,0,0,0,97.145-97.131,97.129,97.129,0,0,0-97.145-97.1,97.133,97.133,0,0,0-97.145,97.13,97.131,97.131,0,0,0,97.145,97.1Z" transform="translate(-460.964 690.441)" fill="#132db8"/></clipPath><clipPath id="y"><path d="M316.411-743.89a69.836,69.836,0,0,0,69.836-69.836,69.836,69.836,0,0,0-69.836-69.836,69.836,69.836,0,0,0-69.836,69.836A69.836,69.836,0,0,0,316.411-743.89Z" transform="translate(-246.575 883.561)" fill="none"/></clipPath><clipPath id="z"><path d="M769.151-671.287a69.836,69.836,0,0,0,69.836-69.836,69.836,69.836,0,0,0-69.836-69.836,69.836,69.836,0,0,0-69.836,69.836,69.836,69.836,0,0,0,69.836,69.836Z" transform="translate(-699.315 810.959)" fill="#7a4865"/></clipPath><clipPath id="aa"><path d="M213.426-867.668a25.755,25.755,0,0,0,25.755-25.755,25.755,25.755,0,0,0-25.755-25.755,25.755,25.755,0,0,0-25.755,25.755A25.755,25.755,0,0,0,213.426-867.668Z" transform="translate(-187.671 919.178)" fill="none"/></clipPath><clipPath id="ab"><path d="M234.175-691.924A34.175,34.175,0,0,0,268.35-726.1a34.175,34.175,0,0,0-34.175-34.175A34.175,34.175,0,0,0,200-726.1,34.175,34.175,0,0,0,234.175-691.924Z" transform="translate(-200 760.274)" fill="#f2f2f2"/></clipPath></defs><ellipse cx="917.5" cy="904.5" rx="917.5" ry="904.5" fill="rgba(243,241,248,0.42)"/><g transform="translate(-2473.987 -5023.729) rotate(11)" clip-path="url(#a)"><g transform="translate(3832.633 4513.034)"><g transform="translate(0 126.795)" clip-path="url(#b)"><path d="M39.726-1115.753H231.9v631.991H39.726Z" transform="translate(-44.679 1110.8)" fill="#f2f2f2"/></g><g transform="translate(545.81 400.195)" clip-path="url(#c)"><path d="M417.123-926.712H609.3V133.21H417.123Z" transform="translate(-422.076 921.759)" fill="#28a4a8"/></g><g transform="translate(545.81)" clip-path="url(#d)"><path d="M417.123-1203.424H609.3v1090.63H417.123Z" transform="translate(-422.076 1198.472)" fill="#f2f2f2"/></g><g transform="translate(0 1113.414)" clip-path="url(#e)"><path d="M39.726-433.562H231.9V198.429H39.726Z" transform="translate(-44.679 428.609)" fill="#188ac0"/></g><g transform="translate(182.267 251.608)" clip-path="url(#f)"><path d="M165.753-1029.452H539.2v1136.2H165.753Z" transform="translate(-170.706 1024.499)" fill="#2b8cbc"/></g><g transform="translate(182.267 251.351)" clip-path="url(#g)"><g transform="translate(-4.953 -5.687)" clip-path="url(#h)"><g transform="translate(4.953 4.953)" clip-path="url(#i)"><path d="M165.753-1029.629H539.2v822.182H165.753Z" transform="translate(-170.706 1025.41)" fill="#a9ddde"/></g></g></g><g transform="translate(910.344 670.24)" clip-path="url(#j)"><path d="M669.178-739.992H861.351V52.858H669.178Z" transform="translate(-674.131 735.039)" fill="#238bbe"/></g><g transform="translate(910.344 930.156)" clip-path="url(#k)"><g transform="translate(-4.953 -4.953)" clip-path="url(#l)"><g transform="translate(4.953 4.953)" clip-path="url(#m)"><path d="M669.178-560.274H861.169V71.194H669.178Z" transform="translate(-674.131 555.321)" fill="#1ca4a9"/></g></g></g><g transform="translate(74.294 802.371)" clip-path="url(#n)"><path d="M91.1-648.63h41.6v274.391H91.1Z" transform="translate(-96.049 643.677)" fill="#1ca4a9"/></g><g transform="translate(555.716 263.495)" clip-path="url(#o)"><g transform="translate(-4.953 -12.878)" clip-path="url(#p)"><g transform="translate(4.953 12.878)" clip-path="url(#q)"><path d="M423.973-1021.233H780.065v355.986H423.973Z" transform="translate(-428.925 1016.28)" fill="#1ca4a9"/></g><g transform="translate(178.046 0.733)" clip-path="url(#r)"><g transform="translate(-173.093 12.145)" clip-path="url(#s)"><path d="M543.657-1029.629H917.97V105.437H543.657Z" transform="translate(-375.516 1012.533)" fill="#f2f2f2"/></g></g><g transform="translate(178.046 184.4)" clip-path="url(#t)"><g transform="translate(-173.093 -171.522)" clip-path="url(#q)"><path d="M543.657-902.635h183v304.378h-183Z" transform="translate(-375.516 1069.204)" fill="#238bbe"/></g></g></g></g><g transform="translate(1166.905 917.278)" clip-path="url(#v)"><path d="M846.575-569.178h166.418v360.572H846.575Z" transform="translate(-851.528 564.225)" fill="#dc2249"/></g><g transform="translate(416.044 691.426)" clip-path="url(#w)"><path d="M327.4-725.342h453.13v452.993H327.4Z" transform="translate(-332.35 720.389)" fill="#f2f2f2"/></g><g transform="translate(604.263 736.949)" clip-path="url(#x)"><path d="M457.54-693.866h204.2V-489.73H457.54Z" transform="translate(-462.493 688.913)" fill="#55afb3"/></g><g transform="translate(294.203 457.649)" clip-path="url(#y)"><path d="M243.151-886.986H392.728v149.578H243.151Z" transform="translate(-248.104 882.033)" fill="#55afb3"/></g><g transform="translate(948.977 562.651)" clip-path="url(#z)"><path d="M695.89-814.383H845.468v149.578H695.89Z" transform="translate(-700.843 809.43)" fill="#7a4865"/></g><g transform="translate(209.013 406.139)" clip-path="url(#aa)"><path d="M184.247-922.6h61.416v61.416H184.247Z" transform="translate(-189.199 917.65)" fill="#0e24bb"/></g><g transform="translate(226.843 635.953)" clip-path="url(#ab)"><path d="M196.575-763.7h78.256v78.256H196.575Z" transform="translate(-201.528 758.746)" fill="#f2f2f2"/></g></g></g></svg>