<svg xmlns="http://www.w3.org/2000/svg" xmlns:xlink="http://www.w3.org/1999/xlink" width="2088.304" height="1892.842" viewBox="0 0 2088.304 1892.842"><defs><clipPath id="a"><path d="M0,0H1539.873V1154.9H0Z" transform="translate(0 0)" fill="#f2f2f2" clip-rule="evenodd"/></clipPath><clipPath id="b"><path d="M91.133,0a91.085,91.085,0,0,1,91.133,91.034V531.051a91.085,91.085,0,0,1-91.133,91.034H0V91.034A91.085,91.085,0,0,1,91.133,0Z" fill="#f2f2f2"/></clipPath><clipPath id="c"><path d="M91.133,0a91.088,91.088,0,0,1,91.133,91.042V898.28a91.088,91.088,0,0,1-91.134,91.042q-50.331,0-91.133,60.7V91.043A91.088,91.088,0,0,1,91.133,0Z" fill="#59afb2"/></clipPath><clipPath id="d"><path d="M91.133,0a91.1,91.1,0,0,1,91.134,91.072V898.58a91.1,91.1,0,0,1-91.134,91.072Q40.8,989.652,0,1080.724V91.072A91.1,91.1,0,0,1,91.133,0Z" fill="#f2f2f2"/></clipPath><clipPath id="e"><path d="M91.133,0a91.085,91.085,0,0,1,91.133,91.034V531.051a91.085,91.085,0,0,1-91.133,91.034H0V91.034A91.085,91.085,0,0,1,91.133,0Z" fill="#dc2249"/></clipPath><clipPath id="f"><path d="M363.543,860.32H0V5.217H148.447V0h215.1Zm0,2.972v26.746H0V863.292Zm0,31.7v24.269H0V894.99Zm0,32.194v21.3H0v-21.3Zm0,32.194v17.83H0v-17.83Zm0,30.708v17.335H0V990.086Zm0,33.184v12.382H0V1023.27Zm-2.05,31.2a90.713,90.713,0,0,1-3.071,10.9H5.121a90.7,90.7,0,0,1-3.071-10.9Zm-13.521,31.7a91.493,91.493,0,0,1-6.419,8.42H21.991a91.531,91.531,0,0,1-6.423-8.42Zm-38.2,32.194a90.331,90.331,0,0,1-37.118,7.925H90.886a90.331,90.331,0,0,1-37.118-7.925Z" fill="#7a4865"/></clipPath><clipPath id="g"><path d="M0,0H363.543V338.3a90.954,90.954,0,0,1-90.886,91.022,90.954,90.954,0,0,0-90.886,91.023V630.232c0,100.544-81.382,182.045-181.772,182.045Z" fill="#f6cb51"/></clipPath><clipPath id="h"><rect width="373.449" height="823.173" fill="none"/></clipPath><clipPath id="i"><path d="M0,813.267H363.543V0H0Z" fill="none"/></clipPath><clipPath id="j"><path d="M182.267,77.65V600.8a91.1,91.1,0,0,1-91.133,91.072Q40.8,691.871,0,782.944V0A91.155,91.155,0,0,0,90.143,77.65Z" fill="#3d2c42"/></clipPath><clipPath id="k"><path d="M91.042,0a91,91,0,0,1,91.043,90.96V530.6A91.043,91.043,0,0,1,0,530.6V90.96A91,91,0,0,1,91.042,0Z" fill="#dc2249"/></clipPath><clipPath id="l"><rect width="192.173" height="631.991" fill="#dc2249"/></clipPath><clipPath id="m"><path d="M0,622.085H182.267V0H0Z" fill="#188ac0"/></clipPath><clipPath id="n"><path d="M15.849,186.963A15.961,15.961,0,1,1,31.7,171a15.9,15.9,0,0,1-15.849,15.96Zm0,77.522A15.961,15.961,0,1,1,31.7,248.525a15.9,15.9,0,0,1-15.849,15.96Zm0-232.565A15.961,15.961,0,1,1,31.7,15.961a15.9,15.9,0,0,1-15.849,15.96Zm0,77.522A15.961,15.961,0,1,1,31.7,93.482a15.9,15.9,0,0,1-15.849,15.96Z" fill="#5293b3"/></clipPath><clipPath id="o"><path d="M173.093,346.08c95.6,0,173.093-77.473,173.093-173.04S268.69,0,173.093,0,0,77.472,0,173.041,77.5,346.08,173.093,346.08Z" fill="#0e24bb"/></clipPath><clipPath id="p"><rect width="542.839" height="1126.291" fill="#7a4865"/></clipPath><clipPath id="q"><path d="M0,346.7H346.7V0H0Z" fill="none"/></clipPath><clipPath id="r"><path d="M364.407,0V1034.058a91.1,91.1,0,0,1-91.1,91.1H91.1a91.1,91.1,0,0,1-91.1-91.1V0Z" fill="#f2f2f2"/></clipPath><clipPath id="s"><path d="M0,346.7H346.7V0H0Z" fill="#f2f2f2"/></clipPath><clipPath id="t"><path d="M0,0H173.093V294.472H0Z" fill="none"/></clipPath><clipPath id="v"><path d="M152.054,163.948a4.431,4.431,0,1,1,4.458-4.431,4.443,4.443,0,0,1-4.458,4.431Zm0-31.017a4.431,4.431,0,1,1,4.458-4.431,4.443,4.443,0,0,1-4.458,4.431Zm0-31.017a4.431,4.431,0,1,1,4.458-4.431,4.443,4.443,0,0,1-4.458,4.431Zm0-31.017a4.431,4.431,0,1,1,4.458-4.431,4.442,4.442,0,0,1-4.458,4.431Zm0-31.017a4.431,4.431,0,1,1,4.458-4.431A4.443,4.443,0,0,1,152.054,39.879Zm0-31.017a4.431,4.431,0,1,1,4.458-4.431A4.443,4.443,0,0,1,152.054,8.862ZM122.787,163.948a4.431,4.431,0,1,1,4.458-4.431,4.443,4.443,0,0,1-4.458,4.431Zm0-31.017a4.431,4.431,0,1,1,4.458-4.431,4.443,4.443,0,0,1-4.458,4.431Zm0-31.017a4.431,4.431,0,1,1,4.458-4.431,4.443,4.443,0,0,1-4.458,4.431Zm0-31.017a4.431,4.431,0,1,1,4.458-4.431,4.443,4.443,0,0,1-4.458,4.431Zm0-31.017a4.431,4.431,0,1,1,4.458-4.431,4.443,4.443,0,0,1-4.458,4.431Zm0-31.017a4.431,4.431,0,1,1,4.458-4.431,4.443,4.443,0,0,1-4.458,4.431ZM93.522,163.947a4.431,4.431,0,1,1,4.458-4.431,4.443,4.443,0,0,1-4.458,4.431Zm0-31.017a4.431,4.431,0,1,1,4.458-4.431,4.443,4.443,0,0,1-4.458,4.431Zm0-31.017a4.431,4.431,0,1,1,4.458-4.431,4.443,4.443,0,0,1-4.458,4.431Zm0-31.017a4.431,4.431,0,1,1,4.458-4.431A4.443,4.443,0,0,1,93.522,70.9Zm0-31.017a4.431,4.431,0,1,1,4.458-4.431,4.443,4.443,0,0,1-4.458,4.431Zm0-31.017a4.431,4.431,0,1,1,4.458-4.431,4.443,4.443,0,0,1-4.458,4.431ZM62.982,163.947a4.431,4.431,0,1,1,4.458-4.431,4.443,4.443,0,0,1-4.458,4.431Zm0-31.017A4.431,4.431,0,1,1,67.44,128.5a4.443,4.443,0,0,1-4.458,4.431Zm0-31.017a4.431,4.431,0,1,1,4.458-4.431,4.443,4.443,0,0,1-4.458,4.431Zm0-31.017a4.431,4.431,0,1,1,4.458-4.431A4.443,4.443,0,0,1,62.982,70.9Zm0-31.017a4.431,4.431,0,1,1,4.458-4.431,4.443,4.443,0,0,1-4.458,4.431Zm0-31.017A4.431,4.431,0,1,1,67.44,4.431a4.443,4.443,0,0,1-4.458,4.431ZM33.716,163.947a4.431,4.431,0,1,1,4.458-4.431,4.443,4.443,0,0,1-4.458,4.431Zm0-31.017a4.431,4.431,0,1,1,4.458-4.431,4.443,4.443,0,0,1-4.458,4.431Zm0-31.017a4.431,4.431,0,1,1,4.458-4.431,4.443,4.443,0,0,1-4.458,4.431Zm0-31.017a4.431,4.431,0,1,1,4.458-4.431A4.443,4.443,0,0,1,33.716,70.9Zm0-31.017a4.431,4.431,0,1,1,4.458-4.431,4.443,4.443,0,0,1-4.458,4.431Zm0-31.017a4.431,4.431,0,1,1,4.458-4.431,4.443,4.443,0,0,1-4.458,4.431ZM4.458,163.948a4.431,4.431,0,1,1,4.458-4.431,4.443,4.443,0,0,1-4.458,4.431Zm0-31.017A4.431,4.431,0,1,1,8.915,128.5a4.443,4.443,0,0,1-4.458,4.431Zm0-31.017a4.431,4.431,0,1,1,4.458-4.431,4.443,4.443,0,0,1-4.458,4.431Zm0-31.017a4.431,4.431,0,1,1,4.458-4.431A4.443,4.443,0,0,1,4.458,70.9Zm0-31.017a4.431,4.431,0,1,1,4.458-4.431,4.443,4.443,0,0,1-4.458,4.431Zm0-31.017A4.431,4.431,0,1,1,8.915,4.431,4.443,4.443,0,0,1,4.458,8.862Zm147.6,341.8a4.431,4.431,0,1,1,4.458-4.431,4.443,4.443,0,0,1-4.458,4.431Zm0-31.017a4.431,4.431,0,1,1,4.458-4.431A4.443,4.443,0,0,1,152.054,319.649Zm0-31.017a4.431,4.431,0,1,1,4.458-4.431A4.443,4.443,0,0,1,152.054,288.632Zm0-31.017a4.431,4.431,0,1,1,4.458-4.431,4.443,4.443,0,0,1-4.458,4.431Zm0-31.017a4.431,4.431,0,1,1,4.458-4.431,4.443,4.443,0,0,1-4.458,4.431Zm0-31.017a4.431,4.431,0,1,1,4.458-4.431A4.443,4.443,0,0,1,152.054,195.581ZM122.791,350.666a4.431,4.431,0,1,1,4.458-4.431,4.443,4.443,0,0,1-4.458,4.431Zm0-31.017a4.431,4.431,0,1,1,4.458-4.431,4.443,4.443,0,0,1-4.458,4.431Zm0-31.017a4.431,4.431,0,1,1,4.458-4.431,4.443,4.443,0,0,1-4.458,4.431Zm0-31.017a4.431,4.431,0,1,1,4.458-4.431,4.443,4.443,0,0,1-4.458,4.431Zm0-31.017a4.431,4.431,0,1,1,4.458-4.431,4.443,4.443,0,0,1-4.458,4.431Zm0-31.017a4.431,4.431,0,1,1,4.458-4.431,4.443,4.443,0,0,1-4.458,4.431ZM93.526,350.666a4.431,4.431,0,1,1,4.458-4.431,4.443,4.443,0,0,1-4.458,4.431Zm0-31.017a4.431,4.431,0,1,1,4.458-4.431,4.443,4.443,0,0,1-4.458,4.431Zm0-31.017a4.431,4.431,0,1,1,4.458-4.431,4.443,4.443,0,0,1-4.458,4.431Zm0-31.017a4.431,4.431,0,1,1,4.458-4.431,4.443,4.443,0,0,1-4.458,4.431Zm0-31.017a4.431,4.431,0,1,1,4.458-4.431,4.443,4.443,0,0,1-4.458,4.431Zm0-31.017a4.431,4.431,0,1,1,4.458-4.431,4.443,4.443,0,0,1-4.458,4.431ZM62.986,350.666a4.431,4.431,0,1,1,4.457-4.431,4.443,4.443,0,0,1-4.457,4.431Zm0-31.017a4.431,4.431,0,1,1,4.457-4.431A4.443,4.443,0,0,1,62.986,319.649Zm0-31.017a4.431,4.431,0,1,1,4.457-4.431A4.443,4.443,0,0,1,62.986,288.632Zm0-31.017a4.431,4.431,0,1,1,4.457-4.431,4.443,4.443,0,0,1-4.457,4.431Zm0-31.017a4.431,4.431,0,1,1,4.457-4.431,4.443,4.443,0,0,1-4.457,4.431Zm0-31.017a4.431,4.431,0,1,1,4.457-4.431A4.443,4.443,0,0,1,62.986,195.581ZM33.72,350.666a4.431,4.431,0,1,1,4.458-4.431,4.443,4.443,0,0,1-4.458,4.431Zm0-31.017a4.431,4.431,0,1,1,4.458-4.431A4.443,4.443,0,0,1,33.72,319.649Zm0-31.017a4.431,4.431,0,1,1,4.458-4.431A4.443,4.443,0,0,1,33.72,288.632Zm0-31.017a4.431,4.431,0,1,1,4.458-4.431,4.443,4.443,0,0,1-4.458,4.431Zm0-31.017a4.431,4.431,0,1,1,4.458-4.431A4.443,4.443,0,0,1,33.72,226.6Zm0-31.017a4.431,4.431,0,1,1,4.458-4.431A4.443,4.443,0,0,1,33.72,195.581ZM4.458,350.666a4.431,4.431,0,1,1,4.458-4.431,4.443,4.443,0,0,1-4.458,4.431Zm0-31.017a4.431,4.431,0,1,1,4.458-4.431,4.443,4.443,0,0,1-4.458,4.431Zm0-31.017A4.431,4.431,0,1,1,8.915,284.2a4.443,4.443,0,0,1-4.458,4.431Zm0-31.017a4.431,4.431,0,1,1,4.458-4.431,4.443,4.443,0,0,1-4.458,4.431Zm0-31.017a4.431,4.431,0,1,1,4.458-4.431A4.443,4.443,0,0,1,4.458,226.6Zm0-31.017a4.431,4.431,0,1,1,4.458-4.431,4.443,4.443,0,0,1-4.458,4.431Z" fill="#00a4ad"/></clipPath><clipPath id="w"><path d="M221.612,443.087c122.393,0,221.612-99.189,221.612-221.545S344.005,0,221.612,0,0,99.189,0,221.544,99.219,443.087,221.612,443.087Z" fill="#f2f2f2"/></clipPath><clipPath id="x"><path d="M97.145,194.23A97.115,97.115,0,1,0,0,97.13a97.134,97.134,0,0,0,97.145,97.1Z" fill="#132db8"/></clipPath><clipPath id="y"><path d="M69.836,139.672A69.836,69.836,0,1,0,0,69.836,69.836,69.836,0,0,0,69.836,139.672Z" fill="none"/></clipPath><clipPath id="z"><path d="M69.836,139.672A69.836,69.836,0,1,0,0,69.836a69.836,69.836,0,0,0,69.836,69.836Z" fill="#7a4865"/></clipPath><clipPath id="aa"><path d="M25.755,51.51A25.755,25.755,0,1,0,0,25.755,25.755,25.755,0,0,0,25.755,51.51Z" fill="none"/></clipPath><clipPath id="ab"><path d="M34.175,68.35A34.175,34.175,0,1,0,0,34.175,34.175,34.175,0,0,0,34.175,68.35Z" fill="#f2f2f2"/></clipPath></defs><g transform="matrix(0.951, -0.309, 0.309, 0.951, 0, 535.201)"><g transform="translate(220.366 0) rotate(11)" clip-path="url(#a)"><g transform="translate(60.633 -314.966)"><g transform="translate(0 126.795)" clip-path="url(#b)"><path d="M0,0H192.173V631.991H0Z" transform="translate(-4.953 -4.953)" fill="#f2f2f2"/></g><g transform="translate(545.81 400.195)" clip-path="url(#c)"><path d="M0,0H192.173V1059.922H0Z" transform="translate(-4.953 -4.953)" fill="#59afb2"/></g><g transform="translate(545.81)" clip-path="url(#d)"><path d="M0,0H192.173V1090.63H0Z" transform="translate(-4.953 -4.953)" fill="#f2f2f2"/></g><g transform="translate(0 1113.414)" clip-path="url(#e)"><path d="M0,0H192.173V631.991H0Z" transform="translate(-4.953 -4.953)" fill="#ff0052"/></g><g transform="translate(182.267 251.608)" clip-path="url(#f)"><path d="M0,0H373.449V1136.2H0Z" transform="translate(-4.953 -4.953)" fill="#5293b3"/></g><g transform="translate(182.267 251.351)" clip-path="url(#g)"><g transform="translate(-4.953 -5.687)" clip-path="url(#h)"><g transform="translate(4.953 4.953)" clip-path="url(#i)"><path d="M0,0H373.449V822.182H0Z" transform="translate(-4.953 -4.219)" fill="#a9ddde"/></g></g></g><g transform="translate(910.344 670.24)" clip-path="url(#j)"><path d="M0,0H192.173V792.849H0Z" transform="translate(-4.953 -4.953)" fill="#00a4ac"/></g><g transform="translate(910.344 930.156)" clip-path="url(#k)"><g transform="translate(-4.953 -4.953)" clip-path="url(#l)"><g transform="translate(4.953 4.953)" clip-path="url(#m)"><path d="M0,0H191.992V631.468H0Z" transform="translate(-4.953 -4.953)" fill="#188ac0"/></g></g></g><g transform="translate(74.294 802.371)" clip-path="url(#n)"><path d="M0,0H41.6V274.391H0Z" transform="translate(-4.953 -4.953)" fill="#75cbb3"/></g><g transform="translate(555.716 263.495)" clip-path="url(#o)"><g transform="translate(-4.953 -12.878)" clip-path="url(#p)"><g transform="translate(4.953 12.878)" clip-path="url(#q)"><path d="M0,0H356.092V355.986H0Z" transform="translate(-4.953 -4.953)" fill="#00a4ab"/></g><g transform="translate(178.046 0.733)" clip-path="url(#r)"><g transform="translate(-173.093 12.145)" clip-path="url(#s)"><path d="M0,0H374.313V1135.066H0Z" transform="translate(168.14 -17.096)" fill="#f2f2f2"/></g></g><g transform="translate(178.046 184.4)" clip-path="url(#t)"><g transform="translate(-173.093 -171.522)" clip-path="url(#q)"><path d="M0,0H183V304.378H0Z" transform="translate(168.14 166.569)" fill="#0589c3"/></g></g></g></g><g transform="translate(1166.905 917.278)" clip-path="url(#v)"><path d="M0,0H166.418V360.572H0Z" transform="translate(-4.953 -4.953)" fill="#00a4ad"/></g><g transform="translate(416.044 691.426)" clip-path="url(#w)"><path d="M0,0H453.13V452.993H0Z" transform="translate(-4.953 -4.953)" fill="#f2f2f2"/></g><g transform="translate(604.263 736.949)" clip-path="url(#x)"><path d="M0,0H204.2V204.136H0Z" transform="translate(-4.953 -4.953)" fill="#06a4aa"/></g><g transform="translate(294.203 457.649)" clip-path="url(#y)"><path d="M0,0H149.578V149.578H0Z" transform="translate(-4.953 -4.953)" fill="#55afb3"/></g><g transform="translate(948.977 562.651)" clip-path="url(#z)"><path d="M0,0H149.578V149.578H0Z" transform="translate(-4.953 -4.953)" fill="#f3f1f8"/></g><g transform="translate(209.013 406.139)" clip-path="url(#aa)"><path d="M0,0H61.416V61.416H0Z" transform="translate(-4.953 -4.953)" fill="#0e24bb"/></g><g transform="translate(226.843 635.953)" clip-path="url(#ab)"><path d="M0,0H78.256V78.256H0Z" transform="translate(-4.953 -4.953)" fill="#f2f2f2"/></g></g></g></g></svg>