<svg id="Layer_1" data-name="Layer 1" xmlns="http://www.w3.org/2000/svg" xmlns:xlink="http://www.w3.org/1999/xlink" viewBox="0 0 1196.18 1280"><defs><style>.cls-1{fill:none;}.cls-2{clip-path:url(#clip-path);}.cls-3{clip-path:url(#clip-path-2);}.cls-4{isolation:isolate;}.cls-5{clip-path:url(#clip-path-3);}.cls-6{clip-path:url(#clip-path-4);}.cls-7{clip-path:url(#clip-path-5);}.cls-8{fill:#59afb2;}.cls-9{clip-path:url(#clip-path-6);}.cls-10{clip-path:url(#clip-path-7);}.cls-11{fill:#f2f2f2;}.cls-12{clip-path:url(#clip-path-8);}.cls-13{clip-path:url(#clip-path-9);}.cls-14{fill:#5293b3;}.cls-15{clip-path:url(#clip-path-10);}.cls-16{clip-path:url(#clip-path-11);}.cls-17{clip-path:url(#clip-path-12);}.cls-18{clip-path:url(#clip-path-14);}.cls-19{fill:#a9ddde;}.cls-20{clip-path:url(#clip-path-16);}.cls-21{clip-path:url(#clip-path-17);}.cls-22{fill:#00a4ac;}.cls-23{clip-path:url(#clip-path-18);}.cls-24{clip-path:url(#clip-path-19);}.cls-25{clip-path:url(#clip-path-20);}.cls-26{clip-path:url(#clip-path-22);}.cls-27{fill:#188ac0;}.cls-28{clip-path:url(#clip-path-24);}.cls-29{clip-path:url(#clip-path-25);}.cls-30{clip-path:url(#clip-path-26);}.cls-31{clip-path:url(#clip-path-28);}.cls-32{fill:#00a4ab;}.cls-33{clip-path:url(#clip-path-30);}.cls-34{clip-path:url(#clip-path-31);}.cls-35{clip-path:url(#clip-path-34);}.cls-36{clip-path:url(#clip-path-35);}.cls-37{fill:#0589c3;}.cls-38{clip-path:url(#clip-path-38);}.cls-39{clip-path:url(#clip-path-39);}.cls-40{fill:#00a4ad;}.cls-41{clip-path:url(#clip-path-40);}.cls-42{clip-path:url(#clip-path-41);}.cls-43{clip-path:url(#clip-path-42);}.cls-44{clip-path:url(#clip-path-43);}.cls-45{fill:#06a4aa;}.cls-46{clip-path:url(#clip-path-44);}.cls-47{clip-path:url(#clip-path-45);}.cls-48{fill:#f3f1f8;}</style><clipPath id="clip-path"><rect class="cls-1" width="1196.18" height="1280"/></clipPath><clipPath id="clip-path-2"><rect class="cls-1" x="-834.28" y="145.01" width="2191.42" height="1643.57" transform="translate(-115.87 39.07) rotate(-7)"/></clipPath><clipPath id="clip-path-3"><rect class="cls-1" x="-926.38" y="17.33" width="2375.54" height="1898.8"/></clipPath><clipPath id="clip-path-4"><path class="cls-1" d="M73.85,284.08A129.62,129.62,0,0,1,218.37,396.87l140,1140.23a129.62,129.62,0,0,1-112.93,144.4q-71.1,8.73-118.21,101.54L-39.08,428.48A129.62,129.62,0,0,1,73.85,284.08Z"/></clipPath><clipPath id="clip-path-5"><rect class="cls-1" x="-55.07" y="268.16" width="440.1" height="1514.91"/></clipPath><clipPath id="clip-path-6"><path class="cls-1" d="M4.45-281.2A129.65,129.65,0,0,1,149-168.37L289,972.24a129.65,129.65,0,0,1-112.94,144.45Q105,1125.42,63.15,1261.14L-108.49-136.76A129.65,129.65,0,0,1,4.45-281.2Z"/></clipPath><clipPath id="clip-path-7"><rect class="cls-1" x="-124.45" y="17.33" width="445.08" height="1243.81"/></clipPath><clipPath id="clip-path-8"><path class="cls-1" d="M37.37,1679a128.43,128.43,0,0,1-51,17.63l-256.76,31.53a128.54,128.54,0,0,1-53.8-4.76Zm48.37-52.1a129.19,129.19,0,0,1-7.61,13l-451.38,55.42a130.63,130.63,0,0,1-10.53-10.78Zm13.6-47.12a127.79,127.79,0,0,1-2.45,15.92l-499,61.28a128.79,128.79,0,0,1-6.22-14.86Zm-2.51-44.43,2,16.75.09.74-513.51,63.05-.09-.74-2.05-16.75Zm-5.76-46.87,3,24.48-513.51,63-3-24.48Zm-5.33-43.38,3.1,25.19-513.51,63-3.09-25.19Zm-5.58-45.47,3.69,30.08-513.5,63-3.7-30.08Zm-5.58-45.48,4.21,34.28-513.51,63-4.21-34.28Zm-5.5-44.77,4.64,37.78-513.51,63-4.64-37.78Zm-.52-4.2-513.5,63L-593.25,160.42l209.68-25.74-.9-7.37L-80.64,90Z"/></clipPath><clipPath id="clip-path-9"><rect class="cls-1" x="-594.44" y="89.91" width="709.42" height="1654.37"/></clipPath><clipPath id="clip-path-10"><path class="cls-1" d="M-594.2,152.69l513.51-63L-22,567.49A129.43,129.43,0,0,1-134.61,711.82,129.46,129.46,0,0,0-247.2,856.16l19.06,155.21c17.44,142-83.38,271.26-225.18,288.67Z"/></clipPath><clipPath id="clip-path-11"><rect class="cls-1" x="-594.44" y="89.56" width="654.99" height="1210.72"/></clipPath><clipPath id="clip-path-12"><rect class="cls-1" x="-532.78" y="108.76" width="531.46" height="1171.47" transform="translate(-86.63 -27.37) rotate(-7)"/></clipPath><clipPath id="clip-path-14"><rect class="cls-1" x="-525.73" y="115.81" width="517.37" height="1157.38" transform="translate(-86.63 -27.37) rotate(-7)"/></clipPath><clipPath id="clip-path-16"><path class="cls-1" d="M777.79,696.17l90.73,738.95a129.65,129.65,0,0,1-112.93,144.45q-71.1,8.73-112.93,144.45L506.87,618.1a129.72,129.72,0,0,0,140.79,94Z"/></clipPath><clipPath id="clip-path-17"><rect class="cls-1" x="506.7" y="586.22" width="393.49" height="1138.14"/></clipPath><clipPath id="clip-path-18"><path class="cls-1" d="M680.55,969.44a129.52,129.52,0,0,1,144.37,112.7l76.25,621A129.57,129.57,0,0,1,644,1734.71l-76.25-621A129.52,129.52,0,0,1,680.55,969.44Z"/></clipPath><clipPath id="clip-path-19"><rect class="cls-1" x="551.89" y="953.39" width="365.39" height="910.08"/></clipPath><clipPath id="clip-path-20"><rect class="cls-1" x="597.88" y="959.08" width="273.48" height="899.4" transform="translate(-166.21 100.03) rotate(-7)"/></clipPath><clipPath id="clip-path-22"><rect class="cls-1" x="604.93" y="966.13" width="259.39" height="885.3" transform="translate(-166.21 100.03) rotate(-7)"/></clipPath><clipPath id="clip-path-24"><ellipse class="cls-1" cx="209.92" cy="319.47" rx="246.33" ry="246.26" transform="translate(-37.55 28.12) rotate(-7.04)"/></clipPath><clipPath id="clip-path-25"><rect class="cls-1" x="-64.68" y="44.73" width="549.32" height="549.32"/></clipPath><clipPath id="clip-path-26"><rect class="cls-1" x="20.97" y="34.69" width="772.52" height="1602.85" transform="translate(-98.86 55.86) rotate(-7)"/></clipPath><clipPath id="clip-path-28"><rect class="cls-1" x="-36.36" y="73.17" width="493.4" height="493.4" transform="translate(-37.41 28.02) rotate(-7)"/></clipPath><clipPath id="clip-path-30"><path class="cls-1" d="M692.53-5.3,871.87,1455.31A129.65,129.65,0,0,1,759,1599.8l-257.37,31.6a129.66,129.66,0,0,1-144.48-112.88L177.8,57.9Z"/></clipPath><clipPath id="clip-path-31"><rect class="cls-1" x="177.61" y="44.73" width="307.04" height="549.32"/></clipPath><clipPath id="clip-path-34"><rect class="cls-1" x="234.27" y="300.76" width="246.33" height="419.07" transform="translate(-59.52 47.36) rotate(-7)"/></clipPath><clipPath id="clip-path-35"><rect class="cls-1" x="209.63" y="287.01" width="275.02" height="307.04"/></clipPath><clipPath id="clip-path-38"><path class="cls-1" d="M952.33,1198a6.3,6.3,0,1,1,5.52-7,6.33,6.33,0,0,1-5.52,7Zm5.37,43.82a6.31,6.31,0,1,1,5.53-7,6.32,6.32,0,0,1-5.53,7Zm5.38,43.81a6.31,6.31,0,1,1,5.53-7,6.32,6.32,0,0,1-5.53,7Zm5.38,43.81a6.31,6.31,0,1,1,5.53-7,6.32,6.32,0,0,1-5.53,7Zm5.38,43.81a6.31,6.31,0,1,1,5.53-7,6.32,6.32,0,0,1-5.53,7Zm5.38,43.81a6.3,6.3,0,1,1,5.53-7,6.32,6.32,0,0,1-5.53,7ZM993.66,1193a6.31,6.31,0,1,1,5.53-7A6.33,6.33,0,0,1,993.66,1193Zm5.38,43.81a6.31,6.31,0,1,1,5.53-7,6.33,6.33,0,0,1-5.53,7Zm5.38,43.81a6.3,6.3,0,1,1,5.53-7,6.33,6.33,0,0,1-5.53,7Zm5.38,43.81a6.3,6.3,0,1,1,5.53-7A6.32,6.32,0,0,1,1009.8,1324.39Zm5.38,43.82a6.31,6.31,0,1,1,5.52-7A6.33,6.33,0,0,1,1015.18,1368.21Zm5.38,43.81a6.31,6.31,0,1,1,5.52-7,6.33,6.33,0,0,1-5.52,7ZM1035,1187.88a6.3,6.3,0,1,1,5.52-7A6.33,6.33,0,0,1,1035,1187.88Zm5.38,43.82a6.31,6.31,0,1,1,5.52-7,6.33,6.33,0,0,1-5.52,7Zm5.38,43.81a6.31,6.31,0,1,1,5.52-7,6.33,6.33,0,0,1-5.52,7Zm5.38,43.81a6.31,6.31,0,1,1,5.52-7A6.33,6.33,0,0,1,1051.14,1319.32Zm5.37,43.81a6.31,6.31,0,1,1,5.53-7A6.32,6.32,0,0,1,1056.51,1363.13Zm5.38,43.81a6.3,6.3,0,1,1,5.53-7A6.32,6.32,0,0,1,1061.89,1406.94Zm16.24-224.35a6.31,6.31,0,1,1,5.53-7A6.32,6.32,0,0,1,1078.13,1182.59Zm5.38,43.81a6.31,6.31,0,1,1,5.53-7,6.32,6.32,0,0,1-5.53,7Zm5.38,43.81a6.31,6.31,0,1,1,5.53-7,6.32,6.32,0,0,1-5.53,7Zm5.38,43.81a6.3,6.3,0,1,1,5.53-7A6.32,6.32,0,0,1,1094.27,1314Zm5.38,43.81a6.3,6.3,0,1,1,5.53-7,6.31,6.31,0,0,1-5.53,7Zm5.38,43.82a6.31,6.31,0,1,1,5.53-7,6.32,6.32,0,0,1-5.53,7Zm14.44-224.14a6.31,6.31,0,1,1,5.53-7,6.32,6.32,0,0,1-5.53,7Zm5.38,43.81a6.3,6.3,0,1,1,5.53-7,6.32,6.32,0,0,1-5.53,7Zm5.38,43.82a6.31,6.31,0,1,1,5.53-7,6.32,6.32,0,0,1-5.53,7Zm5.38,43.81a6.31,6.31,0,1,1,5.53-7,6.32,6.32,0,0,1-5.53,7Zm5.38,43.81a6.31,6.31,0,1,1,5.53-7,6.31,6.31,0,0,1-5.53,7Zm5.38,43.81a6.31,6.31,0,1,1,5.53-7,6.33,6.33,0,0,1-5.53,7Zm14.44-224.13a6.31,6.31,0,1,1,5.52-7A6.33,6.33,0,0,1,1160.81,1172.44Zm5.38,43.81a6.31,6.31,0,1,1,5.52-7,6.33,6.33,0,0,1-5.52,7Zm5.38,43.81a6.31,6.31,0,1,1,5.52-7,6.33,6.33,0,0,1-5.52,7Zm5.38,43.81a6.31,6.31,0,1,1,5.52-7A6.33,6.33,0,0,1,1177,1303.87Zm5.37,43.81a6.3,6.3,0,1,1,5.53-7A6.32,6.32,0,0,1,1182.32,1347.68Zm5.38,43.82a6.31,6.31,0,1,1,5.53-7,6.32,6.32,0,0,1-5.53,7ZM919.94,934.29a6.31,6.31,0,1,1,5.53-7,6.32,6.32,0,0,1-5.53,7Zm5.38,43.81a6.3,6.3,0,1,1,5.53-7,6.31,6.31,0,0,1-5.53,7Zm5.38,43.82a6.31,6.31,0,1,1,5.53-7,6.32,6.32,0,0,1-5.53,7Zm5.38,43.81a6.31,6.31,0,1,1,5.53-7,6.31,6.31,0,0,1-5.53,7Zm5.38,43.81a6.31,6.31,0,1,1,5.53-7,6.33,6.33,0,0,1-5.53,7Zm5.38,43.81a6.31,6.31,0,1,1,5.53-7,6.33,6.33,0,0,1-5.53,7Zm14.43-224.13a6.31,6.31,0,1,1,5.53-7,6.32,6.32,0,0,1-5.53,7ZM966.65,973a6.31,6.31,0,1,1,5.53-7,6.33,6.33,0,0,1-5.53,7Zm5.38,43.81a6.31,6.31,0,1,1,5.53-7,6.33,6.33,0,0,1-5.53,7Zm5.38,43.81a6.3,6.3,0,1,1,5.53-7,6.33,6.33,0,0,1-5.53,7Zm5.38,43.82a6.31,6.31,0,1,1,5.53-7,6.33,6.33,0,0,1-5.53,7Zm5.38,43.81a6.31,6.31,0,1,1,5.53-7,6.33,6.33,0,0,1-5.53,7Zm14.44-224.14a6.31,6.31,0,1,1,5.53-7,6.33,6.33,0,0,1-5.53,7ZM1008,968a6.3,6.3,0,1,1,5.53-7,6.33,6.33,0,0,1-5.53,7Zm5.38,43.82a6.31,6.31,0,1,1,5.53-7,6.33,6.33,0,0,1-5.53,7Zm5.38,43.81a6.31,6.31,0,1,1,5.52-7,6.33,6.33,0,0,1-5.52,7Zm5.38,43.81a6.31,6.31,0,1,1,5.52-7,6.33,6.33,0,0,1-5.52,7Zm5.38,43.81a6.31,6.31,0,1,1,5.52-7,6.33,6.33,0,0,1-5.52,7Zm16.24-224.35a6.31,6.31,0,1,1,5.52-7,6.33,6.33,0,0,1-5.52,7Zm5.37,43.81a6.31,6.31,0,1,1,5.53-7,6.33,6.33,0,0,1-5.53,7Zm5.38,43.81a6.31,6.31,0,1,1,5.53-7,6.32,6.32,0,0,1-5.53,7Zm5.38,43.81a6.31,6.31,0,1,1,5.53-7,6.32,6.32,0,0,1-5.53,7Zm5.38,43.81a6.3,6.3,0,1,1,5.53-7,6.32,6.32,0,0,1-5.53,7Zm5.38,43.82a6.31,6.31,0,1,1,5.53-7,6.32,6.32,0,0,1-5.53,7Zm14.44-224.14a6.31,6.31,0,1,1,5.53-7,6.32,6.32,0,0,1-5.53,7Zm5.38,43.81a6.31,6.31,0,1,1,5.53-7,6.32,6.32,0,0,1-5.53,7Zm5.38,43.81a6.3,6.3,0,1,1,5.53-7,6.32,6.32,0,0,1-5.53,7Zm5.38,43.82a6.31,6.31,0,1,1,5.53-7,6.32,6.32,0,0,1-5.53,7Zm5.38,43.81a6.31,6.31,0,1,1,5.53-7,6.32,6.32,0,0,1-5.53,7Zm5.38,43.81a6.31,6.31,0,1,1,5.53-7,6.31,6.31,0,0,1-5.53,7Zm14.44-224.14a6.3,6.3,0,1,1,5.53-7A6.32,6.32,0,0,1,1128.42,908.69Zm5.38,43.82a6.31,6.31,0,1,1,5.53-7A6.32,6.32,0,0,1,1133.8,952.51Zm5.38,43.81a6.31,6.31,0,1,1,5.53-7,6.32,6.32,0,0,1-5.53,7Zm5.38,43.81a6.31,6.31,0,1,1,5.53-7,6.32,6.32,0,0,1-5.53,7Zm5.38,43.81a6.31,6.31,0,1,1,5.53-7,6.32,6.32,0,0,1-5.53,7Zm5.38,43.81a6.3,6.3,0,1,1,5.53-7,6.31,6.31,0,0,1-5.53,7Z"/></clipPath><clipPath id="clip-path-39"><rect class="cls-1" x="911.94" y="895.04" width="282.13" height="523"/></clipPath><clipPath id="clip-path-40"><ellipse class="cls-1" cx="163.79" cy="1008.25" rx="315.38" ry="315.28" transform="translate(-121.13 27.33) rotate(-6.97)"/></clipPath><clipPath id="clip-path-41"><rect class="cls-1" x="-187.78" y="656.67" width="703.38" height="703.02"/></clipPath><clipPath id="clip-path-42"><path class="cls-1" d="M257,1022.92A138.21,138.21,0,1,0,102.94,902.61,138.24,138.24,0,0,0,257,1022.92Z"/></clipPath><clipPath id="clip-path-43"><rect class="cls-1" x="85.81" y="731.38" width="308.46" height="308.46"/></clipPath><clipPath id="clip-path-44"><path class="cls-1" d="M665.65,644.6a99.38,99.38,0,1,0-110.76-86.53A99.37,99.37,0,0,0,665.65,644.6Z"/></clipPath><clipPath id="clip-path-45"><rect class="cls-1" x="542.64" y="435.02" width="222.01" height="222.01"/></clipPath></defs><title>signup_static_image</title><g class="cls-2"><g class="cls-3"><g class="cls-4"><g class="cls-5"><g class="cls-6"><g class="cls-4"><g class="cls-7"><rect class="cls-8" x="28.16" y="271.46" width="273.48" height="1508.39" transform="translate(-123.77 27.74) rotate(-7)"/></g></g></g><g class="cls-9"><g class="cls-4"><g class="cls-10"><rect class="cls-11" x="-38.58" y="-293.98" width="273.48" height="1552.1" transform="translate(-58.02 15.56) rotate(-7)"/></g></g></g><g class="cls-12"><g class="cls-4"><g class="cls-13"><rect class="cls-14" x="-505.46" y="108.5" width="531.46" height="1616.94" transform="translate(-113.54 -22.38) rotate(-7)"/></g></g></g><g class="cls-15"><g class="cls-4"><g class="cls-16"><g class="cls-17"><g class="cls-4"><g class="cls-16"><g class="cls-18"><g class="cls-4"><g class="cls-16"><path class="cls-19" d="M-602,146.55l527.5-64.77L68,1243.12l-270.48,33.21-257,31.56Z"/></g></g></g></g></g></g></g></g></g><g class="cls-20"><g class="cls-4"><g class="cls-21"><rect class="cls-22" x="566.75" y="591.09" width="273.48" height="1128.32" transform="translate(-135.55 94.34) rotate(-7)"/></g></g></g><g class="cls-23"><g class="cls-4"><g class="cls-24"><g class="cls-25"><g class="cls-4"><g class="cls-24"><g class="cls-26"><g class="cls-4"><g class="cls-24"><rect class="cls-27" x="597.83" y="959.1" width="273.23" height="898.65" transform="translate(-166.17 100) rotate(-7)"/></g></g></g></g></g></g></g></g></g><g class="cls-28"><g class="cls-4"><g class="cls-29"><g class="cls-30"><g class="cls-4"><g class="cls-29"><g class="cls-31"><g class="cls-4"><g class="cls-29"><rect class="cls-32" x="-43.46" y="66.17" width="506.76" height="506.61" transform="translate(-37.37 27.96) rotate(-7)"/></g></g></g><g class="cls-33"><g class="cls-4"><g class="cls-34"><g class="cls-31"><g class="cls-4"><g class="cls-34"><rect class="cls-11" x="266.39" y="13.28" width="532.69" height="1615.33" transform="translate(-96.08 71.04) rotate(-7)"/></g></g></g></g></g></g><g class="cls-35"><g class="cls-4"><g class="cls-36"><g class="cls-31"><g class="cls-4"><g class="cls-36"><rect class="cls-37" x="227.22" y="293.71" width="260.43" height="433.17" transform="matrix(0.99, -0.12, 0.12, 0.99, -59.52, 47.36)"/></g></g></g></g></g></g></g></g></g></g></g></g><g class="cls-38"><g class="cls-4"><g class="cls-39"><rect class="cls-40" x="934.64" y="900.07" width="236.83" height="513.14" transform="translate(-133.11 136.96) rotate(-7)"/></g></g></g><g class="cls-41"><g class="cls-4"><g class="cls-42"><rect class="cls-11" x="-158.64" y="685.92" width="644.86" height="644.66" transform="translate(-121.65 27.48) rotate(-7)"/></g></g></g><g class="cls-43"><g class="cls-4"><g class="cls-44"><rect class="cls-45" x="94.86" y="740.49" width="290.6" height="290.51" transform="translate(-106.15 35.87) rotate(-7)"/></g></g></g><g class="cls-46"><g class="cls-4"><g class="cls-47"><rect class="cls-48" x="547.1" y="439.53" width="212.87" height="212.87" transform="translate(-61.66 83.71) rotate(-7)"/></g></g></g></g></g></g></g></svg>