<svg xmlns="http://www.w3.org/2000/svg" xmlns:xlink="http://www.w3.org/1999/xlink" width="293.961" height="138.325" viewBox="0 0 293.961 138.325"><defs><clipPath id="a"><path d="M205.878,159.556c.425-.185.629-.782.465-1.5l4.543-1.971.6-.261c.165.715-.039,1.312-.465,1.5Z" transform="translate(-205.878 -155.828)" fill="none"/></clipPath><clipPath id="b"><path d="M210.641,159.249l-5.143,2.232a.735.735,0,0,1-.3.059l5.143-2.231A.728.728,0,0,0,210.641,159.249Z" transform="translate(-205.201 -159.249)" fill="none"/></clipPath><clipPath id="c"><path d="M201.126,154.539l.22-.1.227-.1.232-.1.237-.1.241-.1.245-.106.248-.108.25-.108.42-.182.422-.183.421-.182.416-.181.409-.178.4-.173.386-.168.371-.161c.4,0,.832.458.961,1.021.107.465-.025.856-.3.976l-5.143,2.231c.276-.12.409-.51.3-.976C201.958,155,201.528,154.541,201.126,154.539Z" transform="translate(-201.126 -152.308)" fill="none"/></clipPath><clipPath id="d"><path d="M206.247,154.354l-5.143,2.231a.471.471,0,0,1-.191.038c-.4,0-.832-.458-.962-1.021-.107-.465.025-.856.3-.976L205.4,152.4c-.276.12-.409.511-.3.976.129.563.56,1.019.962,1.021A.471.471,0,0,0,206.247,154.354Z" transform="translate(-199.913 -152.395)" fill="none"/></clipPath><clipPath id="e"><path d="M200.879,154.539a.48.48,0,0,0-.191.038l5.143-2.231a.472.472,0,0,1,.191-.038h0c-.128.045-.248.108-.371.161l-1.195.518-1.679.728-1.9.824Z" transform="translate(-200.688 -152.308)" fill="none"/></clipPath><clipPath id="f"><path d="M197.65,155.539c-.129-.562-.564-1.019-.966-1.021l5.143-2.231c.4,0,.837.458.966,1.021h0l-.37.161-.386.168-.809.351-1.679.728-1.9.824,5.143-2.231c.107.465-.028.855-.305.975l-5.143,2.231C197.622,156.394,197.757,156,197.65,155.539Z" transform="translate(-196.684 -152.287)" fill="none"/></clipPath><clipPath id="g"><path d="M203.091,156.851l-5.143,2.231a.476.476,0,0,1-.192.038l5.143-2.231A.476.476,0,0,0,203.091,156.851Z" transform="translate(-197.756 -156.851)" fill="none"/></clipPath></defs><g transform="translate(0 0)"><path d="M187.418,220.16c4.021.532,7.649,2.588,11.282,4.392a101.94,101.94,0,0,0,17.616,6.8c4.645,1.312,9.493,2.3,14.28,1.688,11.212-1.431,19.53-11.176,24.705-21.224s8.485-21.207,15.53-30.045,19.658-14.821,29.76-9.75c7.391,3.71,11.1,11.932,14.836,19.31s9.032,15.2,17.19,16.566c6.083,1.017,12.031-1.892,17.812-4.039s12.8-3.416,17.7.324c5.1,3.886,5.527,11.2,7.262,17.367a35.162,35.162,0,0,0,9.739,16.034c3.525,3.305,7.9,6.107,9.656,10.611,2.6,6.68-2.05,14.423-8.4,17.742s-13.858,3.335-21.024,3.2c-31.942-.583-63.882-2.553-95.815-1.611-26.606.784-53.206,3.588-79.788,2.224-10.233-.525-20.964-1.863-29.25-7.891-7.825-5.692-14.332-19.747-7.255-28.346C159.63,225.76,177.893,218.9,187.418,220.16Z" transform="translate(-101.558 -135.419)" fill="#00a4ac"/><g transform="translate(0 1.17)"><g transform="translate(15.078 31.98)"><path d="M111.265,199.063C99.854,186.939,86.618,176.7,73.443,166.524c4.076,18.063,8.21,36.3,16.131,53.033,5.247,11.086,26.155,47.723,42.378,36.216C149.919,243.029,120.472,208.844,111.265,199.063Z" transform="translate(-73.443 -166.524)" fill="#24195a"/><line x2="52.934" y2="74.404" transform="translate(7.826 12.883)" fill="none" stroke="#fff" stroke-miterlimit="10" stroke-width="1.716"/><line x1="1.11" y2="16.875" transform="translate(27.08 23.072)" fill="none" stroke="#fff" stroke-miterlimit="10" stroke-width="1.716"/><line x2="14.92" y2="6.263" transform="translate(6.109 25.178)" fill="none" stroke="#fff" stroke-miterlimit="10" stroke-width="1.716"/><line x2="20.894" y2="5.776" transform="translate(11.209 41.23)" fill="none" stroke="#fff" stroke-miterlimit="10" stroke-width="1.716"/><line x1="4.102" y2="18.144" transform="translate(38.482 37.829)" fill="none" stroke="#fff" stroke-miterlimit="10" stroke-width="1.716"/><line x2="21.841" y2="2.783" transform="translate(21.656 60.239)" fill="none" stroke="#fff" stroke-miterlimit="10" stroke-width="1.716"/><line x1="2.122" y2="21.905" transform="translate(53.535 55.227)" fill="none" stroke="#fff" stroke-miterlimit="10" stroke-width="1.716"/></g><g transform="translate(0 63.42)"><path d="M38.971,238.4c2.765,20.05,11.047,39.845,25.89,53.6,10.921,10.123,44.692,28.8,51.818,5.374,6.365-20.923-27.047-37.884-41.8-45.518C71.513,250.123,39.08,239.194,38.971,238.4Z" transform="translate(-38.971 -238.404)" fill="#0085cf"/><path d="M50.72,257.851S104.2,310,122.311,310.931" transform="translate(-45.581 -249.345)" fill="none" stroke="#fff" stroke-miterlimit="10" stroke-width="1.716"/><line x2="1.653" y2="12.998" transform="translate(15.078 6.388)" fill="none" stroke="#fff" stroke-miterlimit="10" stroke-width="1.716"/><line x2="17.804" transform="translate(7.471 27.056)" fill="none" stroke="#fff" stroke-miterlimit="10" stroke-width="1.716"/><line x2="0.79" y2="21.297" transform="translate(31.211 11.586)" fill="none" stroke="#fff" stroke-miterlimit="10" stroke-width="1.716"/><line y1="3.356" x2="22.547" transform="translate(15.078 37.597)" fill="none" stroke="#fff" stroke-miterlimit="10" stroke-width="1.716"/><line y2="25.923" transform="translate(48.287 20.114)" fill="none" stroke="#fff" stroke-miterlimit="10" stroke-width="1.716"/><line x2="0.318" y2="27.001" transform="translate(57.661 25.95)" fill="none" stroke="#fff" stroke-miterlimit="10" stroke-width="1.716"/><line y1="7.469" x2="23.041" transform="translate(30.519 49.911)" fill="none" stroke="#fff" stroke-miterlimit="10" stroke-width="1.716"/><line y1="7.642" x2="22.828" transform="translate(42.159 57.38)" fill="none" stroke="#fff" stroke-miterlimit="10" stroke-width="1.716"/></g><g transform="translate(78.796)"><path d="M241.144,95.7c-2.763,7.214-46.787,107.456-2.092,88.941,14.091-5.837,11.6-26.138,10.67-38.475a227.132,227.132,0,0,0-3.235-26.8C245.363,113.685,244.42,104.28,241.144,95.7Z" transform="translate(-219.116 -95.698)" fill="#24195a"/><path d="M251.206,115.89s-5.6,62.255-14.433,82.078" transform="translate(-229.05 -107.058)" fill="none" stroke="#fff" stroke-miterlimit="10" stroke-width="1.716"/><line x2="6.075" y2="18.157" transform="translate(11.978 25.706)" fill="none" stroke="#fff" stroke-miterlimit="10" stroke-width="1.716"/><line x2="8.46" y2="14.797" transform="translate(7.723 41.36)" fill="none" stroke="#fff" stroke-miterlimit="10" stroke-width="1.716"/><line x2="10.629" y2="14.115" transform="translate(2.553 56.811)" fill="none" stroke="#fff" stroke-miterlimit="10" stroke-width="1.716"/><line x1="11.461" y2="16.423" transform="translate(17.342 32.336)" fill="none" stroke="#fff" stroke-miterlimit="10" stroke-width="1.716"/><line x1="16.151" y2="9.411" transform="translate(14.94 56.811)" fill="none" stroke="#fff" stroke-miterlimit="10" stroke-width="1.716"/></g><line x2="8.398" y2="19.865" transform="translate(95.165 78.57)" fill="none" stroke="#fff" stroke-miterlimit="10" stroke-width="1.716"/><g transform="translate(95.165 21.149)"><path d="M257.777,219.729c-.952-7.946-1.9-16.018-.611-23.916,1.361-8.326,5.143-16.033,8.939-23.568,4.944-9.813,9.993-19.574,15.042-29.334,3.648,15,7.323,30.442,5.22,45.74a71.272,71.272,0,0,1-9.583,26.443c-3.008,5.082-10.777,19.145-17.047,18.955C258.561,229.457,258.344,224.462,257.777,219.729Z" transform="translate(-256.538 -142.912)" fill="#0086cc"/><path d="M282.964,169.626s-6.086,55.3-19.114,79.454" transform="translate(-260.652 -157.941)" fill="none" stroke="#fff" stroke-miterlimit="10" stroke-width="1.716"/><line x2="5.959" y2="10.18" transform="translate(13.546 21.488)" fill="none" stroke="#fff" stroke-miterlimit="10" stroke-width="1.716"/><line x1="11.837" y2="11.27" transform="translate(18.187 28.107)" fill="none" stroke="#fff" stroke-miterlimit="10" stroke-width="1.716"/><line x2="7.679" y2="18.607" transform="translate(8.398 31.667)" fill="none" stroke="#fff" stroke-miterlimit="10" stroke-width="1.716"/><line x2="10.153" y2="19.469" transform="translate(2.602 45.081)" fill="none" stroke="#fff" stroke-miterlimit="10" stroke-width="1.716"/><line x1="15.278" y2="11.489" transform="translate(14.55 45.74)" fill="none" stroke="#fff" stroke-miterlimit="10" stroke-width="1.716"/></g></g><g transform="translate(42.039 22.339)"><g transform="translate(0)" style="isolation:isolate"><path d="M142.183,145.376l-.476.206-.252-1.094-1.158.5c-.012-.072-.028-.145-.037-.215-.005-.043-.01-.085-.014-.128-.013-.14-.02-.277-.02-.41,0-.02,0-.042,0-.062a3.519,3.519,0,0,1,.037-.438c0-.026.008-.052.012-.077a2.993,2.993,0,0,1,.091-.389c0-.014.01-.027.014-.041a2.428,2.428,0,0,1,.139-.335c.006-.012.011-.025.017-.036a2.091,2.091,0,0,1,.134-.2c.028-.04.052-.085.083-.122a1.669,1.669,0,0,1,.191-.187c.025-.022.047-.05.074-.071a1.473,1.473,0,0,1,.313-.185l-5.143,2.231a1.475,1.475,0,0,0-.31.183l0,0c-.027.021-.048.049-.074.07a1.676,1.676,0,0,0-.191.187c-.03.037-.054.082-.082.122a1.95,1.95,0,0,0-.126.186l-.009.02c-.006.011-.011.024-.017.036a2.4,2.4,0,0,0-.139.335c0,.014-.01.027-.014.041a3.008,3.008,0,0,0-.091.39c0,.025-.009.051-.012.077s-.01.052-.013.079c-.014.116-.021.236-.024.359,0,.02,0,.042,0,.062,0,.133.007.27.02.41,0,.042.008.085.014.128a4.868,4.868,0,0,0,.085.5l23.767,103.171a5.253,5.253,0,0,0,.148.51c.006.017.01.037.016.054s.01.021.014.032a5.25,5.25,0,0,0,.218.517c.013.027.026.054.039.081a5.328,5.328,0,0,0,.27.472c.007.011.013.023.02.034s.022.029.032.044c.087.13.178.256.274.374l.011.013a4.309,4.309,0,0,0,.294.32c.013.012.024.028.036.04l.043.038.094.084c.041.036.082.071.123.1l.1.076c.042.031.084.061.127.09s.066.045.1.066.087.052.131.077.067.038.1.055.09.042.135.062.066.03.1.043.1.033.143.048c.032.01.063.021.094.029.053.014.106.023.158.033.027,0,.053.012.08.015a1.817,1.817,0,0,0,.237.017l41.406.2a1.535,1.535,0,0,0,.623-.123l5.143-2.231a1.535,1.535,0,0,1-.623.123l-41.406-.2a1.807,1.807,0,0,1-.237-.017c-.027,0-.053-.011-.08-.015-.052-.01-.105-.019-.158-.033-.031-.008-.063-.02-.094-.029-.047-.015-.095-.03-.143-.048s-.066-.028-.1-.042-.09-.04-.135-.063-.067-.036-.1-.055-.087-.05-.131-.077-.067-.043-.1-.066-.085-.059-.127-.09l-.1-.076c-.042-.033-.083-.069-.123-.1s-.063-.055-.094-.084-.053-.052-.079-.078a4.313,4.313,0,0,1-.294-.32l-.011-.013c-.1-.117-.187-.244-.274-.374l-.052-.078c-.088-.137-.169-.281-.245-.429l1.014-.44-.156-.676.476-.206L142.7,147.635Z" transform="translate(-135.082 -141.967)" fill="#e7490b"/><g transform="translate(5.142)"><g transform="translate(39.654 2.732)"><path d="M266.769,252.8l-5.143,2.231L237.495,150.284l5.143-2.231Z" transform="translate(-237.495 -148.053)" fill="#eaa4b0"/></g><g transform="translate(25.694 3.548)"><path d="M224.367,149.986l-5.143,2.231-13.644-.066,5.143-2.231Z" transform="translate(-205.579 -149.92)" fill="#361177"/></g><g transform="translate(25.694 3.548)"><path d="M211.318,152.5l-5.143,2.231-.6-2.584,5.143-2.231Z" transform="translate(-205.579 -149.92)" fill="#02cae8"/></g><g transform="translate(25.824 6.132)" style="isolation:isolate"><g clip-path="url(#a)"><g style="isolation:isolate"><path d="M211.021,159.139l-5.143,2.231a.709.709,0,0,0,.147-.087l5.143-2.231a.711.711,0,0,1-.147.087" transform="translate(-205.878 -157.642)" fill="#02b8d2"/><path d="M211.357,158.708l-5.143,2.231a.837.837,0,0,0,.224-.268l5.143-2.231a.837.837,0,0,1-.224.268" transform="translate(-206.067 -157.298)" fill="#02bbd7"/><path d="M211.869,157.85l-5.143,2.231a1.267,1.267,0,0,0,.139-.458l5.143-2.232a1.265,1.265,0,0,1-.139.459" transform="translate(-206.355 -156.707)" fill="#02bfdb"/><path d="M212.128,156.512l-5.143,2.232a1.994,1.994,0,0,0-.045-.684l5.143-2.231a1.992,1.992,0,0,1,.045.684" transform="translate(-206.475 -155.828)" fill="#02c3e0"/></g></g></g><g transform="translate(25.528 7.629)" style="isolation:isolate"><g clip-path="url(#b)"><g style="isolation:isolate"><path d="M210.641,159.249l-5.143,2.232a.735.735,0,0,1-.3.059l5.143-2.231a.728.728,0,0,0,.3-.059" transform="translate(-205.201 -159.249)" fill="#330f78"/></g></g></g><g transform="translate(23.746 4.593)" style="isolation:isolate"><g clip-path="url(#c)"><g transform="translate(-0.192 0)" style="isolation:isolate"><path d="M207.777,156.8l-5.143,2.231a.473.473,0,0,0,.1-.056l5.143-2.231a.474.474,0,0,1-.1.056" transform="translate(-201.783 -154.804)" fill="#330f78"/><path d="M208,156.521l-5.143,2.231a.548.548,0,0,0,.145-.174l5.143-2.231a.553.553,0,0,1-.145.174" transform="translate(-201.905 -154.58)" fill="#351279"/><path d="M208.327,155.962l-5.143,2.231a.834.834,0,0,0,.091-.3l5.143-2.231a.834.834,0,0,1-.091.3" transform="translate(-202.092 -154.195)" fill="#30047a"/><path d="M208.432,154.866l-5.143,2.231a1.3,1.3,0,0,0-.029-.447,1.639,1.639,0,0,0-.05-.173l5.143-2.231a1.646,1.646,0,0,1,.05.173,1.3,1.3,0,0,1,.029.447" transform="translate(-202.106 -153.398)" fill="#33127b"/><path d="M208.131,153.8l-5.143,2.231a1.611,1.611,0,0,0-.172-.348l5.143-2.231a1.615,1.615,0,0,1,.172.348" transform="translate(-201.885 -152.95)" fill="#30047a"/><path d="M207.7,153.138l-5.143,2.231a1.4,1.4,0,0,0-.2-.242L207.5,152.9a1.419,1.419,0,0,1,.2.242" transform="translate(-201.629 -152.639)" fill="#351279"/><path d="M206.563,152.565,201.42,154.8a.811.811,0,0,0-.541-.258.48.48,0,0,0-.191.038l5.143-2.231a.472.472,0,0,1,.191-.038.813.813,0,0,1,.541.257" transform="translate(-200.688 -152.308)" fill="#330f78"/></g></g></g><g transform="translate(23.215 4.631)" style="isolation:isolate"><g clip-path="url(#d)"><g style="isolation:isolate"><path d="M206.836,156.591l-5.143,2.231a.471.471,0,0,1-.191.038.814.814,0,0,1-.541-.257l5.143-2.231a.814.814,0,0,0,.541.257.471.471,0,0,0,.191-.038" transform="translate(-200.503 -154.632)"/><path d="M205.849,156.06l-5.143,2.231a1.419,1.419,0,0,1-.2-.242l5.143-2.231a1.418,1.418,0,0,0,.2.242" transform="translate(-200.247 -154.321)"/><path d="M205.429,155.37l-5.143,2.231a1.6,1.6,0,0,1-.172-.348l5.143-2.231a1.6,1.6,0,0,0,.172.348" transform="translate(-200.026 -153.873)"/><path d="M205.144,154.225,200,156.457a1.646,1.646,0,0,1-.05-.173,1.31,1.31,0,0,1-.029-.446l5.143-2.231a1.31,1.31,0,0,0,.029.446,1.647,1.647,0,0,0,.05.173" transform="translate(-199.913 -153.076)"/><path d="M205.074,153.221l-5.143,2.231a.834.834,0,0,1,.091-.3l5.143-2.231a.833.833,0,0,0-.091.3" transform="translate(-199.923 -152.691)"/><path d="M205.281,152.7l-5.143,2.231a.548.548,0,0,1,.146-.174l5.143-2.231a.548.548,0,0,0-.146.174" transform="translate(-200.04 -152.467)"/><path d="M205.614,152.451l-5.143,2.231a.469.469,0,0,1,.095-.056l5.143-2.231a.47.47,0,0,0-.095.056" transform="translate(-200.227 -152.395)"/></g></g></g><g transform="translate(23.554 4.593)" style="isolation:isolate"><g clip-path="url(#e)"><g style="isolation:isolate"><path d="M206.563,152.565,201.42,154.8a.811.811,0,0,0-.541-.258.48.48,0,0,0-.191.038l5.143-2.231a.472.472,0,0,1,.191-.038.813.813,0,0,1,.541.257" transform="translate(-200.688 -152.308)" fill="#330f78"/></g></g></g><g transform="translate(28.359 4.593)"><path d="M212.2,152.308c.4,0,.832.458.962,1.021s-.091,1.016-.493,1.014-.832-.458-.962-1.021S211.8,152.306,212.2,152.308Z" transform="translate(-211.672 -152.308)"/></g><g transform="translate(10.798 3.477)"><path d="M191.564,149.828l-5.143,2.231-14.9-.072,5.143-2.231Z" transform="translate(-171.525 -149.756)" fill="#361177"/></g><g transform="translate(21.803 4.584)" style="isolation:isolate"><g clip-path="url(#f)"><g style="isolation:isolate"><path d="M203.338,156.778,198.2,159.01a.463.463,0,0,0,.1-.056l5.143-2.231a.462.462,0,0,1-.1.056" transform="translate(-197.534 -154.782)" fill="#330f78"/><path d="M203.558,156.5l-5.143,2.231a.551.551,0,0,0,.147-.176l5.143-2.231a.551.551,0,0,1-.147.176" transform="translate(-197.658 -154.555)" fill="#351279"/><path d="M203.894,155.932l-5.143,2.231a.832.832,0,0,0,.091-.3l5.143-2.231a.832.832,0,0,1-.091.3" transform="translate(-197.847 -154.169)" fill="#30047a"/><path d="M204,154.843l-5.143,2.231a1.286,1.286,0,0,0-.029-.442,1.613,1.613,0,0,0-.05-.171l5.143-2.231a1.579,1.579,0,0,1,.05.171,1.286,1.286,0,0,1,.029.442" transform="translate(-197.863 -153.38)" fill="#33127b"/><path d="M203.7,153.784l-5.143,2.231a1.6,1.6,0,0,0-.171-.346l5.143-2.231a1.6,1.6,0,0,1,.171.346" transform="translate(-197.643 -152.935)" fill="#30047a"/><path d="M203.274,153.125l-5.143,2.231a1.437,1.437,0,0,0-.2-.244l5.143-2.231a1.436,1.436,0,0,1,.2.244" transform="translate(-197.386 -152.621)" fill="#351279"/><path d="M202.373,152.547l-5.143,2.231a.822.822,0,0,0-.545-.26l5.143-2.231a.822.822,0,0,1,.545.26" transform="translate(-196.684 -152.287)" fill="#330f78"/></g></g></g><g transform="translate(22.272 6.58)" style="isolation:isolate"><g clip-path="url(#g)"><g style="isolation:isolate"><path d="M203.091,156.851l-5.143,2.231a.476.476,0,0,1-.192.038l5.143-2.231a.476.476,0,0,0,.192-.038" transform="translate(-197.756 -156.851)"/></g></g></g><g transform="translate(39.338 3.614)"><path d="M265.639,253.052l-5.143,2.231L236.773,152.3l5.143-2.231Z" transform="translate(-236.773 -150.07)" fill="#34127e"/></g><g transform="translate(13.66 6.577)"><path d="M191.823,156.885l-5.143,2.231-8.611-.041,5.143-2.231Z" transform="translate(-178.069 -156.844)"/></g><g transform="translate(17.806 4.542)"><path d="M196.686,152.234c.4,0,.837.458.966,1.021s-.1,1.016-.5,1.014l-8.611-.042c-.4,0-.832-.458-.962-1.021s.1-1.016.493-1.014Z" transform="translate(-187.545 -152.192)"/></g><g transform="translate(12.874 7.627)"><path d="M194.068,159.306l-5.143,2.231-12.655-.061,5.143-2.231Z" transform="translate(-176.27 -159.245)" fill="#361177"/></g><g transform="translate(1.231 2.522)"><path d="M149.652,147.574l43.566.21,24.131,104.751-43.566-.21Zm66.974,104.074L192.9,148.666l-13.644-.066-14.9-.072-13.983-.067L174.1,251.443l42.522.2" transform="translate(-149.652 -147.574)" fill="#3d1391"/></g><g transform="translate(1.959 3.409)"><path d="M193.839,149.807l23.723,102.982-42.522-.2L151.316,149.6l13.983.067.6,2.585c.2.866.861,1.563,1.48,1.566l12.655.061c.619,0,.96-.69.761-1.555l-.6-2.584Z" transform="translate(-151.316 -149.602)" fill="#7bcdf7"/></g><path d="M189.973,142.007c1.31.006,2.714,1.5,3.136,3.329l23.767,103.171c.422,1.833-.3,3.312-1.608,3.306l-41.406-.2c-1.31-.006-2.714-1.5-3.136-3.329L146.959,145.114c-.422-1.833.3-3.312,1.607-3.306Zm25.793,107.284L191.635,144.54l-43.566-.21L172.2,249.081l43.566.21" transform="translate(-146.838 -141.808)" fill="#e7960b"/><g transform="translate(15.942 3.477)"><path d="M198.775,152.412l-.6-2.584-14.9-.072.6,2.585c.2.866.861,1.563,1.48,1.566l12.655.061C198.633,153.97,198.974,153.278,198.775,152.412Zm-4.017.486-8.611-.042c-.4,0-.832-.458-.962-1.021s.1-1.016.493-1.014l8.611.042c.4,0,.837.458.966,1.021s-.1,1.016-.5,1.014m1.943.009c-.4,0-.832-.458-.962-1.021s.091-1.016.493-1.014.832.458.962,1.021-.091,1.016-.493,1.014" transform="translate(-183.284 -149.756)" fill="#3d1391"/></g></g></g></g><g transform="translate(256.798)"><rect width="33.679" height="25.164" rx="12.582" fill="#c5ecfd"/><path d="M633.926,143.062s1.4,6.318-2.289,8.883c5.678-.938,7.008-6.756,7.008-6.756Z" transform="translate(-629.2 -121.175)" fill="#c5ecfd"/><g transform="translate(8.792 2.908)"><circle cx="4.027" cy="4.027" r="4.027" transform="translate(3.2 7.837) rotate(-76.664)" fill="#35255a"/><path d="M8.048,0h0A8.048,8.048,0,0,1,16.1,8.048V9.526a0,0,0,0,1,0,0H0a0,0,0,0,1,0,0V8.048A8.048,8.048,0,0,1,8.048,0Z" transform="translate(0 10.086)" fill="#35255a"/><g transform="translate(9.056 7.92)"><path d="M671.359,128.922s-10.1-5.377,0-8.439v4.22S668.526,125.809,671.359,128.922Z" transform="translate(-666.87 -119.3)" fill="#e8664e"/><path d="M677.133,124.664v-6.886l3.775,3.443Z" transform="translate(-672.644 -117.778)" fill="#e8664e"/></g></g></g><g transform="translate(199.764 18.786)"><g transform="translate(0 0)"><rect width="25.351" height="18.941" rx="9.471" transform="translate(25.351 18.941) rotate(180)" fill="#c5ecfd"/><path d="M540.931,173.637s-1.054,4.756,1.723,6.686c-4.275-.706-5.276-5.085-5.276-5.085Z" transform="translate(-519.137 -157.162)" fill="#c5ecfd"/><g transform="translate(6.255 3.268)"><path d="M12.421,6.21A6.21,6.21,0,1,1,6.21,0a6.21,6.21,0,0,1,6.21,6.21" transform="translate(0 0)" fill="#f7931a"/><path d="M3.264,7.945h0L2.436,7.7l.275-.924L2,6.563l-.275.924-.806-.24-.2-.06L.983,6.3,0,6.01l.277-.932.983.293L2.27,1.98l-.983-.293L1.565.756l.983.293L2.86,0l.806.24.2.059L3.541,1.387l.71.212L4.575.511l.831.248L5.082,1.846l.232.069a1.571,1.571,0,0,1,.278,2.9A1.571,1.571,0,0,1,3.772,7.09l-.233-.069-.275.924Zm-.6-3.537-.39,1.308,1.749.521a.679.679,0,0,0,.52-.054.682.682,0,0,0-.13-1.254Zm.643-2.161L2.921,3.555l1.749.521a.682.682,0,0,0,.39-1.308Z" transform="translate(2.843 2.247)" fill="#fff"/></g></g></g><g transform="translate(227.047 5.147)"><path d="M575.63,104.791h-9.812a7.769,7.769,0,0,0-7.769,7.769v3.4a7.769,7.769,0,0,0,7.769,7.769s5.784,1.645,5.782,6.278a10.766,10.766,0,0,1,4.031-6.278,7.769,7.769,0,0,0,7.769-7.769v-3.4A7.769,7.769,0,0,0,575.63,104.791Z" transform="translate(-558.049 -104.791)" fill="#c5ecfd"/><g transform="translate(5.911 2.711)"><circle cx="6.804" cy="6.804" r="6.804" fill="#fcca0e"/><circle cx="5.185" cy="5.185" r="5.185" transform="translate(1.619 1.619)" fill="#e8664e"/><g transform="translate(5.023 3.41)"><path d="M585.012,124.95a3.636,3.636,0,0,0,.047.561.2.2,0,0,1-.148.063c-.1,0-.148-.063-.148-.171v-.444c-1.193-.008-1.715-.53-1.715-1.153,0-.3.14-.507.577-.444a.9.9,0,0,0-.024.327,1.064,1.064,0,0,0,1.162.982l-.008-2.315c-.008,0-.008-.008-.016-.008-.9-.5-1.5-.881-1.5-1.715,0-.849.678-1.232,1.5-1.278a3.086,3.086,0,0,0-.047-.507.223.223,0,0,1,.156-.062c.093,0,.14.062.14.171v.4c.865.023,1.45.374,1.45.966a.313.313,0,0,1-.312.359.511.511,0,0,1-.241,0,.669.669,0,0,0,0-.328c-.039-.405-.39-.655-.9-.7l.008,2.081.086.046c.842.452,1.52.9,1.52,1.77C586.61,124.21,586.189,124.88,585.012,124.95Zm-.257-3.367-.008-1.941c-.452.023-.912.226-.912.8C583.835,120.959,584.186,121.256,584.755,121.583Zm1.232,2.136c0-.553-.343-.849-.982-1.224l.008,2.167A.926.926,0,0,0,585.986,123.719Z" transform="translate(-583.048 -118.785)" fill="#fcca0e"/></g></g></g></g><g transform="translate(207.771 30.119)"><g transform="translate(46.22)"><path d="M649.47,171.642l-.738.37L647,168.566l.738-.37a1.928,1.928,0,0,1,2.587.859h0A1.927,1.927,0,0,1,649.47,171.642Z" transform="translate(-635.038 -164.319)" fill="#e87a56"/><rect width="1.643" height="3.854" transform="translate(0 10.247) rotate(-26.63)" fill="#1b2a4d"/><rect width="8.923" height="5.919" transform="translate(0.61 8.786) rotate(-26.629)" fill="#1b2a4d"/><path d="M646.422,170.228l-6.477-.063-2.678-5.342,3.824-5.228Z" transform="translate(-629.56 -159.595)" fill="#1b2a4d"/><rect width="3.634" height="4.342" transform="translate(5.815 12.798) rotate(-26.629)" fill="#1b2a4d"/></g><g transform="translate(0 3.019)"><path d="M593.021,167.98a5.171,5.171,0,0,1,2.767-1,3.456,3.456,0,0,1,2.815,2.157,9.34,9.34,0,0,1,.608,3.658,12.378,12.378,0,0,0,.427,3.694c.475,1.409,1.485,2.592,1.944,4.007a5.633,5.633,0,0,1-.652,4.777,3.111,3.111,0,0,1-1.194,1.127,3.823,3.823,0,0,1-1.115.293,17.185,17.185,0,0,1-3.4.154,4.27,4.27,0,0,1-2.1-.531,3.691,3.691,0,0,1-1.2-1.438,11.976,11.976,0,0,1-1.118-5.352,23.344,23.344,0,0,1,1.319-8.465Z" transform="translate(-557.195 -166.765)" fill="#1b2a4d"/><g transform="translate(31.905 9.372)"><path d="M629.668,206.545c1.632-3.9,3.981-11.333,3.144-15.044-.365-1.617,1.708-3.812.782-3.559-1.989.543-3.353,4.242-3.539,6.546a41.051,41.051,0,0,0-.433,5.392C629.83,202.179,628.833,204.681,629.668,206.545Z" transform="translate(-610.78 -187.922)" fill="#e87a56"/><path d="M592.043,205.167c5.84,10.3,10.469,1.059,12.38-3.2,1.707-3.8,3.8-7.987,4.817-3.278,3.371,15.681-15.44,26.488-20.947,12.777S595.9,211.962,592.043,205.167Z" transform="translate(-586.922 -192.802)" fill="#35255a"/></g><g transform="translate(0 2.284)"><g transform="translate(0 44.356)"><g transform="translate(29.052 0.064)"><path d="M623.121,394.814l-12.781,1.561-.737-6.035,3.3-.4,2.3,2.782c1.847.237,5.318-.377,6.667.907Z" transform="translate(-596.829 -338.906)" fill="#260909"/><path d="M596.476,324.3l-3.3.4c-1.762-16.694-.2-27.223-12.773-46.293,2.178-1.713,4.351-3.433,6.533-5.14C600.1,294.075,597.818,300.033,596.476,324.3Z" transform="translate(-580.4 -273.27)" fill="#cd4843"/></g><path d="M522.247,378.224c-2.765-3.383-5.53-6.757-8.267-10.158,1.579-1.383,3.321-2.559,4.987-3.833.753.821,1.473,1.671,2.222,2.494-.452,1.19-1.134,2.284-1.505,3.5,1.109,2.031,2.8,3.834,2.814,6.262C522.5,377.05,522.275,377.655,522.247,378.224Z" transform="translate(-513.98 -324.381)" fill="#260909"/><path d="M527.6,315.469c-.749-.823-1.469-1.674-2.222-2.494,18.725-17.917,18.162-20.734,15.566-39.852,3.8.254,7.607.427,11.38.983C553.685,293.433,547.149,301.768,527.6,315.469Z" transform="translate(-520.395 -273.123)" fill="#e87a56"/></g><g transform="translate(11.387 5.305)"><path d="M588.343,183.845,587.154,194.3l4.1,3.527s1.1-7.869,2.122-8.193S588.343,183.845,588.343,183.845Z" transform="translate(-566.534 -183.845)" fill="#cd4843"/><path d="M560.912,202.127s3.926,5.014,4.458,2.189c.3-1.58,3.377,5.961,3.438,8.295.053,1.982-1.338,5.683-1.338,5.683l9.808,38.631s-35.55,1.905-37.053-4.7c-2.268-9.966,14.206-29.838,14.687-44.389C554.983,205.738,558.026,202.365,560.912,202.127Z" transform="translate(-540.012 -194.13)" fill="#35255a"/></g><g transform="translate(31.949)"><path d="M596.1,178.141c-.506,3.116-.831,6.824-3.326,6.418s-6.216-4.769-5.71-7.886,2.94-5.313,5.435-4.908S596.611,175.025,596.1,178.141Z" transform="translate(-587.022 -171.717)" fill="#e87a56"/></g></g><g transform="translate(1.206 19.886)"><path d="M533.228,238.529c-3.536,1.312-10.451,3.312-14.133,2.726-.666-.106-2.749,1.729-2.294.668.978-2.28,4.552-2.941,7.806-2.986a29.757,29.757,0,0,0,5.22-.419C532.719,238.022,533.42,237.716,533.228,238.529Z" transform="translate(-516.737 -226.625)" fill="#e87a56"/><path d="M546.448,211.959s-14.411,10.672-18.322,11.388c-3.494.64-4.959,4.493-2.5,4.845,8.18,1.173,22.641-6.279,24.932-11.5S549.976,212.475,546.448,211.959Z" transform="translate(-521.05 -211.959)" fill="#35255a"/></g><g transform="translate(22.846)"><path d="M581.978,169.28a6.615,6.615,0,0,0-1.5-2,3.033,3.033,0,0,0-2.326-.756,3.391,3.391,0,0,0-1.869,1.069,17.427,17.427,0,0,0-2.424,3.946,6.087,6.087,0,0,1-3.259,3.146c-1.109.334-2.443.167-3.29.957a3.147,3.147,0,0,0-.749,1.307,4.009,4.009,0,0,0,.134,3.548,4.769,4.769,0,0,0,1.108,1.042q1.914,1.44,3.9,2.781a3.9,3.9,0,0,0,2.722.942,3.145,3.145,0,0,0,1.591-.949,8.724,8.724,0,0,0,2.424-5.125,8.32,8.32,0,0,1,.413-2.294,7.862,7.862,0,0,1,2.416-2.541c.9-.769,1.731-1.865,1.5-3.023A10.866,10.866,0,0,0,581.978,169.28Z" transform="translate(-566.211 -166.496)" fill="#1b2a4d"/><path d="M599.3,171.345a22.678,22.678,0,0,0,2.8,5.07,2.771,2.771,0,0,0,1.209,1.075,10.189,10.189,0,0,0-.462-4.551,5.72,5.72,0,0,0-1.041-1.933,3.072,3.072,0,0,0-1.875-1.074,1.459,1.459,0,0,0-.936.15.814.814,0,0,0-.41.809Z" transform="translate(-584.423 -168.42)" fill="#1b2a4d"/></g></g></g><g transform="translate(152.512 33.489)"><g transform="translate(0 43.821)"><g transform="translate(24.221)"><path d="M469.525,391.175a9.113,9.113,0,0,1-7.3,1.309c-.532-.7-1.037-1.336-1.557-2.012-.332.656-.658,1.314-1,1.962l-1.113-.014c-.035-2.259-.113-4.513-.2-6.772,1.122.035,2.206.024,3.352.07a3.357,3.357,0,0,0,1.75,3.057C464.751,389.218,470.843,390.209,469.525,391.175Z" transform="translate(-451.646 -333.964)" fill="#e7490b"/><path d="M455.14,318.4c-2.168,2.385-3.816,2.349-6.472.654,5.429-21.218,3.707-27.533-5.648-45.541q2.963-3.017,5.928-6.033C460.241,285.094,461.611,298.159,455.14,318.4Z" transform="translate(-443.02 -267.485)" fill="#1b2a4d"/></g><g transform="translate(0 0.333)"><path d="M394.8,391.155c-2.652-.943-4.055-2.981-5.129-5.339.28-.814.509-1.58.769-2.376l-2.177.239-.619-.925q2.7-1.868,5.4-3.736c.608.932,1.237,1.808,1.831,2.775a3.008,3.008,0,0,0-1.465,3.018C393.839,386.08,396.379,391.716,394.8,391.155Z" transform="translate(-387.645 -330.566)" fill="#e7490b"/><path d="M397.394,320.333l-4.714-2.188a525.893,525.893,0,0,0,19.464-49.9q4.29,3.746,8.585,7.487C413.855,291.439,405.841,305.448,397.394,320.333Z" transform="translate(-390.478 -268.247)" fill="#1b2a4d"/></g></g><g transform="translate(8.003 10.352)"><path d="M461.545,190.968l-3.8,7.35,4.336,4.543s2.524-6.672,3.529-7.028S461.545,190.968,461.545,190.968Z" transform="translate(-435.087 -190.968)" fill="#cd4843"/><path d="M438.345,202.028a11.561,11.561,0,0,1,4.295,7.792c.34,3.832-2.049,12.331-2.3,16.989-.174,3.3,1.54,13.423,1.54,13.423s-17.917-2.215-20.833-8.268c-1.155-2.4,8.108-6.006,10.24-20.3C432.183,205.7,435.491,202.361,438.345,202.028Z" transform="translate(-414.387 -197.19)" fill="#fff"/><g transform="translate(23.689 12.63)"><path d="M490.87,247.173c3.709.684,7.447-1.681,11.541-1.828.674-.025,4.171.743,3.54-.223-1.355-2.078-5.045-1.293-8.259-.776-2.2.353-3.384-.341-5.16-.335C489.6,244.02,490.54,246.405,490.87,247.173Z" transform="translate(-477.181 -233.299)" fill="#e87a56"/><path d="M464.663,219.843c.208,7.941,12.727,9.807,16.7,9.839,3.551.028,5.58,2.91,3.221,3.68-7.855,2.565-20-.782-23.155-5.527S461.277,220.959,464.663,219.843Z" transform="translate(-460.099 -219.843)" fill="#fff"/></g><g transform="translate(0 5.471)"><path d="M414.916,225.812c-2.906,2.768-4.21,5.889-6.647,9.51-.4.6-3.246,3.129-2.026,3.193,2.621.136,4.262-3.538,5.834-6.633,1.074-2.116,2.41-2.7,3.517-4.239C417.422,225.108,415.778,226.011,414.916,225.812Z" transform="translate(-405.942 -216.041)" fill="#e87a56"/><path d="M433.313,212.507c-6.906-4.809-16.338,4.813-18.855,8.222-2.248,3.044-5.977,2.984-5.157.466,2.73-8.384,13.948-15.083,20.3-17.578C432.574,202.448,434.481,208.887,433.313,212.507Z" transform="translate(-407.767 -203.477)" fill="#fff"/></g></g><g transform="translate(30.995)"><g transform="translate(1.845 3.818)"><path d="M471.632,181.33c.178,3.068.655,6.659-1.8,6.8s-6.916-3.216-7.094-6.284,1.668-5.671,4.125-5.814S471.453,178.262,471.632,181.33Z" transform="translate(-462.724 -176.028)" fill="#e87a56"/></g><path d="M470.839,175.679a1.15,1.15,0,0,0,1.567.367,1.779,1.779,0,0,0,.778-1.537,4.164,4.164,0,0,0-.469-1.726,4.96,4.96,0,0,0-.291-3.088c-.328-.746-1.163-1.488-1.871-1.084a3.48,3.48,0,0,0-2.056-1.289,1.907,1.907,0,0,0-2.049,1.04,2.364,2.364,0,0,0-2.362-.268,2.5,2.5,0,0,0-1.371,1.922c-2.429-.427-1.35,3.148-.49,4.079a2.963,2.963,0,0,0,4.542-.037,5.494,5.494,0,0,0,1.87,1.871C468.85,176.025,471.11,176.21,470.839,175.679Z" transform="translate(-460.036 -167.3)" fill="#1b2a4d"/><path d="M459.7,181.691a3.68,3.68,0,0,0-.045,2.024,1.162,1.162,0,0,0,.215.467.892.892,0,0,0,.888.236,1.878,1.878,0,0,0,.814-.5,5.169,5.169,0,0,0,.891-1.155c.913-1.582.855-4.377-1.441-4.672C458.98,177.825,457.269,181.267,459.7,181.691Z" transform="translate(-458.505 -173.361)" fill="#1b2a4d"/></g></g><g transform="translate(98.994 38.464)"><g transform="translate(0)"><g transform="translate(11.998 42.565)"><g transform="translate(0 0.153)"><path d="M292.882,395.466a9.113,9.113,0,0,0,7.154,1.952c.592-.646,1.151-1.239,1.729-1.866.272.683.539,1.367.826,2.044l1.109.085c.235-2.247.514-4.486.8-6.728-1.121-.065-2.2-.172-3.346-.228a3.356,3.356,0,0,1-2.014,2.89C297.81,393.94,291.654,394.387,292.882,395.466Z" transform="translate(-292.721 -340.691)" fill="#24195a"/><g transform="translate(7.111)"><path d="M308.978,325.414c1.948,2.568,3.593,2.679,6.388,1.226,3.893-18.778,5.04-32.712,9.667-44.861-1.789-2.179-6.784-3.267-8.578-5.443A423.842,423.842,0,0,0,308.978,325.414Z" transform="translate(-308.978 -276.337)" fill="#1b2a4d"/></g></g><g transform="translate(19.896)"><path d="M342.847,395.481a9.111,9.111,0,0,0,7.412-.219c.378-.79.74-1.521,1.111-2.289.46.574.914,1.151,1.386,1.714l1.086-.242c-.43-2.218-.817-4.441-1.2-6.669-1.091.264-2.155.477-3.267.757a3.356,3.356,0,0,1-1.084,3.351C347.116,392.585,341.358,394.807,342.847,395.481Z" transform="translate(-340.68 -338.88)" fill="#24195a"/><path d="M345.362,325.112c2.612,1.889,4.217,1.515,6.468-.689-1.75-19.1-4.714-32.761-3.83-45.73-2.347-1.563-7.442-1.148-9.792-2.706A423.858,423.858,0,0,0,345.362,325.112Z" transform="translate(-338.208 -275.987)" fill="#1b2a4d"/></g></g><g transform="translate(0 7.945)"><g transform="translate(10.599 10.487)"><path d="M297.788,232.86c-3.126-2.329-4.51-5.922-6.156-9.227-.271-.544-3.133-2.7-1.717-2.809,3.042-.224,4.2,3.753,5,6.2.548,1.67,2.084,2.923,2.982,3.872C299.379,232.458,298.936,232.172,297.788,232.86Z" transform="translate(-289.524 -220.815)" fill="#e87a56"/><path d="M310.245,226.658c-1.3,10.583-10.012,7.065-12.544,2.578-2.261-4.008-5.783-4.186-5.062-.917,2.4,10.891,13.128,12.445,21.871,7.483C318.6,233.48,312.315,228.109,310.245,226.658Z" transform="translate(-291.222 -223.751)" fill="#fca10e"/></g><path d="M319.506,196.839l3.8,7.35-4.336,4.544s-2.525-6.672-3.529-7.028S319.506,196.839,319.506,196.839Z" transform="translate(-293.43 -196.839)" fill="#cd4843"/><path d="M323.849,207.9a11.56,11.56,0,0,0-4.294,7.792c-.34,3.832,2.049,12.331,2.295,16.989.174,3.3-3.266,13.48-3.266,13.48s15.316,1.53,18.231-4.522c1.155-2.4-3.781-9.809-5.913-24.1C330.011,211.568,326.7,208.231,323.849,207.9Z" transform="translate(-295.273 -203.061)" fill="#fcca0e"/><g transform="translate(0 12.63)"><path d="M280.448,253.045c-3.709.684-7.447-1.681-11.54-1.828-.674-.024-4.171.743-3.54-.223,1.356-2.078,5.045-1.293,8.259-.776,2.2.353,3.384-.341,5.161-.335C281.72,249.891,280.778,252.276,280.448,253.045Z" transform="translate(-265.292 -239.17)" fill="#e87a56"/><path d="M293.87,225.713c-.208,7.941-12.727,9.807-16.7,9.839-3.552.028-5.58,2.91-3.221,3.679,7.855,2.565,20-.782,23.156-5.527S297.255,226.829,293.87,225.713Z" transform="translate(-269.589 -225.713)" fill="#fcca0e"/></g></g><g transform="translate(17.867)"><g transform="translate(0.764 1.41)"><path d="M308.045,187.2c-.178,3.068-.655,6.658,1.8,6.8s6.915-3.216,7.094-6.284-1.668-5.671-4.125-5.813S308.224,184.133,308.045,187.2Z" transform="translate(-307.887 -181.899)" fill="#e87a56"/></g><path d="M306.267,182.355a2.166,2.166,0,0,0,1.124,2.559,12.116,12.116,0,0,0,2.934.877,3.209,3.209,0,0,1,2.348,1.785,4.392,4.392,0,0,1,.068,1.759,7.218,7.218,0,0,0,.789,4.386c.8,1.284,6.7,12.451,7.718,13.571,2.188,2.419,4.484-.281,4.926-.84,1.683-2.126-5.7-12.62-6.007-15.314a81.891,81.891,0,0,0-1.593-8.211c-.775-1.754-.931-2.42-2.65-3.267a7.886,7.886,0,0,0-4.766-.9A6.893,6.893,0,0,0,306.267,182.355Z" transform="translate(-306.14 -178.674)" fill="#1b2a4d"/></g></g></g><g transform="translate(64.818 42.718)"><g transform="translate(3.068 43.593)"><path d="M249.156,397.943l-12.34,1.638-.863-5.224,3.189-.423,2.3,2.364c1.8.165,5.141-.445,6.48.64Z" transform="translate(-217.679 -347.625)" fill="#260909"/><path d="M215.637,334.371l-3.189.423c-2.119-14.456-5.621-30.453-18.274-46.732,5.567,2.449,12.792,1.88,12.792,1.88C220.234,307.714,216.336,313.272,215.637,334.371Z" transform="translate(-194.174 -288.062)" fill="#e7490b"/></g><g transform="translate(0 0)"><g transform="translate(6.867 24.364)"><path d="M238.933,256.371c3.711-.676,6.367-4.213,10.142-5.8.621-.262,4.163-.784,3.23-1.464-2-1.462-5.175.581-8,2.2-1.929,1.109-3.285.881-4.944,1.517C236.626,253.873,238.353,255.77,238.933,256.371Z" transform="translate(-222.551 -246.634)" fill="#e87a56"/><path d="M205.789,244.1c3.01,7.351,15.378,4.657,19.107,3.276,3.331-1.233,6.249.742,4.317,2.3-6.435,5.184-18.978,6.361-23.611,3.044S203.019,246.345,205.789,244.1Z" transform="translate(-202.858 -244.101)" fill="#e6d6df"/></g><path d="M229.634,199.427l1.838,8.087-6-.679Z" transform="translate(-208.714 -194.603)" fill="#fcca0e"/><g transform="translate(0 34.782)"><path d="M200.037,274.291l-1.653,4.505-7.668,20.873-3.556-15.178,1.968-8.866,1.7-7.641.013-.066.013.009Z" transform="translate(-187.16 -267.918)" fill="#e7490b"/></g><g transform="translate(1.195 5.926)"><path d="M217.371,201.946l-.957,10.342,4.115,3.4s.921-7.788,1.924-8.13S217.371,201.946,217.371,201.946Z" transform="translate(-204.813 -201.946)" fill="#cd4843"/><path d="M201.718,220.029s3.978,4.867,4.444,2.068c.262-1.565,3.456,5.812,3.565,8.114.093,1.955-2.552,5.778-2.552,5.778l-1.849,15.641s-14.312,1.853-15.4-4.739c-.551-3.335,5.817-6.731,5.991-21.1C195.942,223.715,198.875,220.324,201.718,220.029Z" transform="translate(-189.892 -212.119)" fill="#fff"/><g transform="translate(6.349 5.713)"><path d="M238.248,224.2c1.153-2.25.4-10.868-3.792-8.9,0,0,3.424,1.558,1.663,6.813C235.639,223.542,237.774,223.476,238.248,224.2Z" transform="translate(-221.313 -215.007)" fill="#e87a56"/><g transform="translate(0 6.742)"><path d="M206.253,247.644c11.673,8.067,17.517-11.7,17.435-13.708-.2-5.078-5.386-3.711-5.377-1.748.026,5.726-6.094,10.27-10.941,10.854S204.736,246.6,206.253,247.644Z" transform="translate(-204.408 -230.42)" fill="#fff"/></g></g></g><g transform="translate(9.776)"><path d="M224.781,196.057c-.435,3.085-.678,6.75-3.149,6.4s-6.233-4.579-5.8-7.664,2.791-5.3,5.262-4.955S225.217,192.972,224.781,196.057Z" transform="translate(-213.048 -189.189)" fill="#e87a56"/><path d="M211.546,190.4c-1.054,1.089-2.3,6.665-1.987,8.147s4.159,2.6,5.551,3.2c-.318-.747-.083-6.911.5-7.476s4.736-.6,6.254,1.244a16.857,16.857,0,0,0-.156-3.487,3.624,3.624,0,0,0-1.8-2.564c-3.478-2.166-5.429-.353-5.429-.353S213.2,188.692,211.546,190.4Z" transform="translate(-209.509 -188.399)" fill="#fcca0e"/></g></g></g></svg>