<svg id="BTC" xmlns="http://www.w3.org/2000/svg" width="30.853" height="30.853" viewBox="0 0 30.853 30.853">
  <path id="Fill_504" data-name="Fill 504" d="M30.853,15.426A15.426,15.426,0,1,1,15.426,0,15.426,15.426,0,0,1,30.853,15.426" transform="translate(0 0)" fill="#f7931a"/>
  <path id="Fill_505" data-name="Fill 505" d="M8.108,19.736h0l-2.055-.613.684-2.3L4.968,16.3l-.684,2.3-2-.6-.495-.148.655-2.2L0,14.928l.689-2.314,2.442.728L5.639,4.918,3.2,4.191l.689-2.314L6.328,2.6,7.1,0l2,.6L9.6.744l-.8,2.7,1.763.526.8-2.7,2.065.615-.8,2.7.575.172a3.9,3.9,0,0,1,.69,7.2,3.9,3.9,0,0,1-4.52,5.651l-.579-.172-.683,2.295ZM6.626,10.95,5.657,14.2,10,15.493a1.688,1.688,0,0,0,1.291-.134,1.7,1.7,0,0,0-.323-3.115Zm1.6-5.368L7.257,8.831,11.6,10.125a1.7,1.7,0,0,0,.968-3.249Z" transform="translate(7.062 5.582)" fill="#fff"/>
</svg>
